<?xml version="1.0" encoding="UTF-8" standalone="yes"?>
<svg xml:space="preserve" viewBox="0 0 128 128" version="1.2" baseProfile="tiny-ps" xmlns="http://www.w3.org/2000/svg">
  <title>BIMI</title>
  <path fill="#FFAED3" d="m115.15 53.47-4.45 3.57c-7.26 3.25-15.4 14.02-11.99 21.25l9.59-2.93.08.06.64-.86.82-1.14.65-.91.93-1.38a63.85 63.85 0 0 0 4-6.88 38.15 38.15 0 0 0 2.74-7.21l-3.01-3.57zM73.13 66.36a7.29 7.29 0 0 0-7.17 6.12c-.15.92-1.6 4.1-1.38 5.01l5.52-2.23.23-.62-.05-.05-.59-.59a1.35 1.35 0 0 1-.38-.97c.01-.29.05-.65.14-1.03 0-.06.02-.12.04-.18.12-.52.38-1.02.79-1.43.72-.72 1.85-.86 2.6-.86.46 0 .91.18 1.24.51l.84.84c1.2-.31 2.18-.37 2.18-.37 1.2.05 2.02-1.07 1.2-1.93a7.2 7.2 0 0 0-5.21-2.22z"/>
  <path fill="#FFFCFF" d="M73.16 51.31 31.54 56.1l-9.53.91-.13.03c1.69 6.65 5.34 12.79 9.66 18.39l17.29 6.65 17.23-6.82a7.29 7.29 0 0 1 7.06-8.9c1.97 0 3.85.8 5.21 2.22.82.86 0 1.98-1.2 1.93 0 0-.98.06-2.18.37l4.45 4.47 8.26 2.5 13.9-2.52c4.24-6.12 7.62-12.38 9.13-18.3l-37.53-5.72z"/>
  <path fill="#FF6A8E" d="m119.07 39.88-.22-1-10.74-4.02c-2.19 3.57 1.86 10.55.26 17.5-.06.24 1.6 4.3 2.32 4.69h7.46l.17-.68c1.5-6.41 1.63-11.89.75-16.49zm-17.51 35.45c-8.89 3.34-11.82 8.05-9.75 12.45l2.93 2.94h.01c.98-.97 1.96-1.95 2.93-2.96l1.01-1.05a141.2 141.2 0 0 0 7.7-8.75l.89-1.13.88-1.13.21-.28-.08-.06-6.73-.03zm-13.69 16.9c-.36.4-2.21 1.49-2.57 1.87l3.75-.69-1.17-1.18h-.01zM67.52 78.21c.79.95 1.97.32 2.07-.99.01 0 .13-.88.5-1.96h-4.03a7.18 7.18 0 0 0 1.46 2.95zm.42-34.01 2.07-4.87-.15-.47-7.99-1.94c1.03 2.04 3.63 5.84 4.14 7.23.32.88 1.56.91 1.93.05z"/>
  <path fill="#FFBAC8" d="m79.12 38.86-3.76 2.01c-.53 1.35 7.69 5.08 9.14 5.08 1.71 0 4.54-4.3 5.63-7.09l-5.14-2.52-5.87 2.52zM35.4 37.03l-3.52.41-3.13 1.4c-1.36 5.02-4.31 10.05-1.73 14.63.22.39 4.16 2.63 4.53 2.63.5 0 4.45-.66 4.54-1.26.37-2.64-.02-4.54 1.19-6.91.83-1.63 1.87-1.64 2.97-2.67.42-.42 3.06-1.78 3.52-2.15 1.02-.81-1.9-3.41-.74-4.26l-2.48-1.57-5.15-.25z"/>
  <path fill="#ABD3FF" d="M93.36 27.86c-2.73-1.93-11.39.46-13.65 3.63-1.44 2.02.37 5.03-.59 7.37h11.01c.81-.55 3.94-1.22 4.7-1.95 1.96-1.9 1.32-7.09-1.47-9.06v.01zm-45.08.56c-3.13-2.46-9.77-3.65-12.68-1.82-1.18.74-3.14 1.32-4.06 2.34-.21.22-1.2 1.73-1.39 1.96-.18.23-1.25 2.52-1.41 2.76-.9 1.29.41 3.7 0 5.2h14.28l.11-.08c.19-.14 3.95-1.18 4.17-1.27 4.81-2.01 3.52-7.09.98-9.09z"/>
  <path fill="#8FC3FF" d="m90.13 38.88 10.16 5.95 11.22-5.95c-2.45-11.17-3.14-14.56-16.45-16.74-2.63-.43-9.48.7-11.66 1.53-8.38 4.53-12.31 13.11-13.17 15.19l4.08 6.4 4.81-6.4a33.29 33.29 0 0 1 3.61-6.61c2.26-3.17 6.57-5.03 9.3-3.1 2.79 1.97 2.43 5.9.47 7.8-.76.73-1.56 1.37-2.37 1.93zM48.39 93.64a236.7 236.7 0 0 0 16.14 13.89c1.83 1.45 3.67 2.89 5.57 4.26l.25-.19c.12-.61 3.33-3.54 3.52-3.75 3.26-3.66 6.35-7.27 12.92-14.43l-28.77-7.54s-14.79 2.88-9.63 7.76zm-4.96-71.5c-4.09 0-8.26.81-12.06 2.92-.49.27-2.05 1.31-2.52 1.62l-.02.01a19.85 19.85 0 0 0-2.99 3.07c-2 2.48-3.55 5.49-4.47 9.06l3.89 2.83 3.47-2.81a13.62 13.62 0 0 1 1.95-4.2c.16-.24.34-.47.52-.7.19-.23.38-.47.59-.69.92-1.02 2-1.97 3.18-2.71 2.91-1.83 6.42-2.44 9.55.02 2.54 1.99 1.43 6.07-.84 7.79l-.56.42-1.6 1.16 22.18-1.07c-3.53-7.01-9.27-16.72-20.27-16.72z"/>
  <path fill="#5D7DE3" d="M115.07 30.37a21.15 21.15 0 0 0-4.05-4.24 22.6 22.6 0 0 0-3.52-2.29 27.18 27.18 0 0 0-18.9-2.24l-.06.02a22.43 22.43 0 0 0-5.14 2.04c2.18-.83 4.83-.99 7.5-.99 9.42 0 18.16 5.03 20.61 16.2h7.34a23.2 23.2 0 0 0-3.78-8.5zM86.79 93.41c-6.57 7.16-12.73 13.16-15.99 16.82-.19.21-.33.75-.45 1.36l.02-.01.39-.29 1.18-.88 1.27-.98.25-.19.6-.46 2.26-1.79 2.1-1.69.15-.13 1.56-1.28c1.17-.98 2.42-2.03 3.71-3.14l1.98-1.73 1.01-.89 2.74-2.49.89-.83-1.12-1.4h-2.55zM48.5 21.02c-.48-.06-.96-.11-1.46-.14-.17-.03-.34-.03-.52-.03a21.9 21.9 0 0 0-.81-.02l-.46-.01a26.3 26.3 0 0 0-11.6 2.71l-.11.05-.96.51c-.35.19-.69.4-1.03.61l-.76.5-.21.15c-.14.09-.28.19-.42.31l-.42.3a16 16 0 0 0-.88.71 25.23 25.23 0 0 1 13.6-4c11.01 0 17.72 9.17 21.25 16.18h6.15l-.07-.19c-2.83-8.37-9.81-16.36-21.29-17.64z"/>
  <path fill="#FFC107" d="M108.39 90.25c-5.06-1.47-10.31-.24-13.33.78l13.31 16.38c.15.15 4.17 1.17 4.28 1.35 4.53 1.08 10.28 1.53 11.09-2.8.82-4.37-6.84-13.24-15.35-15.71zm.15 22.59c-.17-.1-.33-.23-.47-.38l-.05-2.63-17.17-14.62c-1.03 3.02-2.28 8.29-.8 13.38 2.47 8.51 11.34 16.17 15.71 15.35 4.33-.81 3.89-6.55 2.8-11.08l-.02-.02zM23.05 14.59c2.77-1.7 2.87-5.13 1.57-7.34v-.02c-2.75-1.68-6.26-1.95-6.26-1.95L5.42 4h-.21c-.61.06-1.05.6-1 1.21L5.5 18.13s.23 3.03 1.62 5.66l.53.48c1.14.98 3 1.07 4.64.48a5.58 5.58 0 0 0 1.5-.77 4.5 4.5 0 0 0 1.75-2.27 13.77 13.77 0 0 0 .58-3.37l.02-1.79-.01-.08c-.02-.44-.06-.71-.06-.71s1.96.34 4.18-.11c.93-.18 1.9-.51 2.8-1.06z"/>
  <path fill="#FFA0B7" d="M70.09 75.26c-.37 1.08-.49 1.96-.5 1.96-.1 1.31-1.28 1.94-2.07.99a7.16 7.16 0 0 1-1.46-2.96H31.78l-.24.18c3.03 3.96 6.41 7.65 9.67 11.07 2.33 2.44 4.72 4.82 7.18 7.13l.13-.13 38.27-.08 1.08-1.19-17.55-17.59-.23.62zm41.42-36.38H90.13c-3.66 2.5-7.53 3.2-9.24 3.2a2.04 2.04 0 0 1-1.95-2.76l.18-.45h-8.89l-.18.47-.18-.47h-.01l.15.47-2.07 4.87c-.37.86-1.61.83-1.93-.05a50.78 50.78 0 0 0-2.3-5.3H43.02c-1.16.85-2.26 1.61-3.28 2.42-.46.37-.91.75-1.32 1.17a13.63 13.63 0 0 0-2.91 3.87 23.93 23.93 0 0 0-2.3 7.59c-.09.6-.58.94-1.08.94-.37 0-.73-.17-.95-.56-2.58-4.58-3.79-10.42-2.43-15.44h-7.24l-.12-.02c-1.22 4.81-1.29 10.63.33 17.54l.17.68.13-.03h25.93l25.18.02h37.57l.18-.73c1.6-6.95 1.68-12.73.63-17.43zM79.3 75.25l.1.1 12.41 12.43a148.2 148.2 0 0 0 9.75-12.45l-22.06-.08h-.2z"/>
  <path fill="#FFFCFF" d="m70.95 75.26-.63-.62-.23.62z"/>
  <path fill="#FFA000" d="m25.5 16.06.28-.24.28-.27a5.04 5.04 0 0 0-.46-7.6 6.47 6.47 0 0 0-1.01-.73c1.3 2.21 1.2 5.64-1.57 7.34-.9.55-1.87.88-2.8 1.06-2.22.45-4.18.11-4.18.11s.04.27.06.71c0-.37-.01-.65-.03-.65 1.06 1.08 2.57 1.52 4.09 1.72l.12.02.74.08c-.68.67-.87 1.72-.72 2.66a5.17 5.17 0 0 0 1.31 2.69l5.4 5.46c.58-.62 1.19-1.2 1.83-1.73l.02-.01.08-.07a11.8 11.8 0 0 1 1.21-.95l-8.11-8.2a6.85 6.85 0 0 0 3.46-1.4zm82.03 93.28h.01l-.02-.02.01.02zm5.09-.61a2.63 2.63 0 0 0-.39-.49L74.08 70.01a1.76 1.76 0 0 0-1.24-.51c-.75 0-1.88.14-2.6.86-.29.29-.48.64-.63.99l37.83 39.57c.58.58 3.22 1.08 3.98 1.08.46 0 .92-.12 1.34-.34a2.94 2.94 0 0 0-.14-2.93z"/>
  <path fill="#C67500" d="M111.45 112.02c-.76 0-1.52-.29-2.1-.87L71.24 72.98l-1.62-1.63-.15.45-.04.18c-.09.38-.14.74-.14 1.03-.01.36.13.71.38.97l.59.59.05.05 37.74 37.82h.01c.14.15.3.28.47.39h.02v.01a2.93 2.93 0 0 0 3.23-.02c.17-.11.32-.24.47-.38l.3-.36c.09-.13.17-.26.24-.4a2.9 2.9 0 0 1-1.34.34zM20.43 20.27c-.15-.94.04-2.02.72-2.69-.25-.02-.61-.01-.86-.04h-.03l-.09-.02c-1.52-.2-3.03-.64-4.09-1.72.03 0 .03.28.03.65l.01.08-.02 1.79c-.03.48-.07.96-.15 1.44-.09.66-.23 1.29-.43 1.91a4.53 4.53 0 0 1-1.73 2.23c-.22.16-.46.31-.71.43-.26.14-.52.25-.79.34-1.65.6-3.5.51-4.65-.47-.17-.15-.35-.24-.51-.4.4.75.9 1.4 1.5 2a5 5 0 0 0 5.44 1.12h.01l.3-.13h.01c.09-.04.19-.09.29-.16h.01c.09-.05.19-.1.28-.17h.01c.09-.05.18-.12.27-.19h.01c.09-.06.18-.13.27-.22l.26-.23h.01l.25-.26.01-.01.23-.29h.01l.23-.3.21-.33h.01c.2-.33.37-.67.51-1.04l.19-.53.05-.19a4 4 0 0 0 .1-.37c.05-.23.08-.45.13-.63v-.01l.01-.05.06-.17 8.04 8.13c.37-.47.76-.91 1.16-1.34l-5.29-5.53a4.9 4.9 0 0 1-1.29-2.62l.01-.01zm-4.88 1.36a11.35 11.35 0 0 1-.01 0h.01zM90.44 94.8l-1.4-1.41 1.41 1.41h-.01z"/>
</svg>