<?xml version="1.0" encoding="UTF-8"?>
<svg id="Layer_1" data-name="Layer 1" xmlns="http://www.w3.org/2000/svg" viewBox="0 0 119.59 120">
  <path d="m104.18,86.25c8.51,2.47,16.17,11.34,15.35,15.71-.81,4.33-6.56,3.88-11.09,2.8-.11-.18-.24-.34-.39-.49l-17.2-17.24c3.02-1.02,8.27-2.25,13.33-.78Z" style="fill: #ffc107;"/>
  <path d="m114.11,52.37c1.5-6.41,1.63-11.89.75-16.49.9,4.6.77,10.08-.73,16.49-.6,2.57-1.61,5.21-2.93,7.88,1.19-2.43,2.13-4.84,2.74-7.2.06-.23.12-.45.17-.68Z" style="fill: #f05a94;"/>
  <path d="m114.86,35.88c.88,4.6.75,10.08-.75,16.49-.05.23-.11.45-.17.68h-7.46c.07-.26.12-.5.18-.74,1.6-6.95,1.68-12.73.64-17.43h7.34c.08.32.15.66.22,1Z" style="fill: #ff6a8e;"/>
  <path d="m110.86,26.38c1.71,2.36,3.02,5.19,3.78,8.5h-7.34c-2.45-11.17-11.19-16.2-20.61-16.2-2.67,0-5.32.16-7.5.99,1.25-.67,2.55-1.24,3.9-1.68.4-.13.82-.25,1.24-.36.02-.01.04-.01.06-.02.97-.25,1.95-.44,2.94-.57.5-.07,1.01-.12,1.53-.15.57-.04,1.14-.06,1.73-.06,4.44,0,8.85.98,12.7,3.02,1.24.65,2.42,1.42,3.52,2.29.61.48,1.19,1,1.74,1.55.84.83,1.62,1.73,2.31,2.69h0Z" style="fill: #5d7de3;"/>
  <path d="m113.89,53.04h.05c-.61,2.37-1.55,4.78-2.74,7.21-.19.38-.38.76-.58,1.14-1.04,1.97-2.18,3.89-3.42,5.74l-.93,1.38c-.22.3-.43.61-.65.91-.27.38-.54.76-.82,1.14-.21.29-.43.57-.64.86l-.08-.06-6.73-.03c4.24-6.12,7.62-12.38,9.13-18.29h7.41Z" style="fill: #ffaed3;"/>
  <path d="m110.62,61.39c.2-.38.39-.76.58-1.14-.18.38-.37.76-.58,1.14Zm-2.67,4.59c.95-1.49,1.84-3.02,2.67-4.59-.81,1.57-1.71,3.1-2.67,4.59Z" style="fill: #f05a94;"/>
  <path d="m108.44,104.76c.66,1.01.64,2.35-.09,3.34.09-.13.17-.26.24-.4-.42.22-.88.34-1.34.34-.76,0-1.52-.29-2.1-.87l-1.79-1.8c-.44-1.31-.78-2.16-.78-2.16l-14.48-14.12.6-.57,14.1,14.47s2.54,1.03,5.64,1.77h0Z" style="fill: #ffa000;"/>
  <path d="m108.59,107.7c-.07.14-.15.27-.24.4-.09.12-.19.24-.3.36-.15.14-.3.27-.47.38-.49.33-1.06.49-1.63.49s-1.12-.16-1.6-.47c-.31-1.32-.68-2.53-.99-3.49l1.79,1.8c.58.58,1.34.87,2.1.87.46,0,.92-.12,1.34-.34Z" style="fill: #c67500;"/>
  <path d="m108.05,104.27c.15.15.28.31.39.49-3.1-.74-5.64-1.77-5.64-1.77l-14.1-14.47.21-.21c.16-.16.33-.32.49-.48.16-.14.31-.29.46-.44h.01c.29-.11.62-.23.98-.36,0,0,17.2,17.24,17.2,17.24Zm0,4.19c-.15.15-.3.28-.47.38.17-.11.32-.24.47-.38Z" style="fill: #ffa000;"/>
  <path d="m107.2,67.13c.25-.38.5-.76.75-1.15-.24.39-.49.77-.75,1.15Z" style="fill: #f05a94;"/>
  <path d="m107.3,34.88c1.04,4.7.96,10.48-.64,17.43-.06.24-.11.48-.18.73h-37.57l-25.18-.02v-13.39l-4.73-4.78h20.5c.87,1.72,1.63,3.49,2.3,5.3.32.88,1.56.91,1.93.05l2.07-4.87c-.05-.16-.1-.31-.15-.47h.01c.12.3.18.47.18.47,0,0,.06-.17.18-.47h8.89l-.18.45c-.53,1.35.5,2.76,1.95,2.76,1.71,0,5.58-.7,9.24-3.2h21.38Z" style="fill: #ffa0b7;"/>
  <path d="m107.3,34.88h-21.38c.81-.56,1.61-1.2,2.37-1.93,1.96-1.9,2.32-5.83-.47-7.8-2.73-1.93-7.04-.07-9.3,3.1-1.44,2.02-2.65,4.28-3.61,6.61h-8.89c.86-2.08,4.79-10.66,13.17-15.19,2.18-.83,4.83-.99,7.5-.99,9.42,0,18.16,5.03,20.61,16.2Z" style="fill: #8fc3ff;"/>
  <path d="m68.91,53.03h37.57c-1.51,5.92-4.89,12.18-9.13,18.3l-22.06-.08-.1.1-4.45-4.47c1.2-.31,2.18-.37,2.18-.37,1.2.05,2.02-1.07,1.2-1.93-1.36-1.42-3.24-2.22-5.21-2.22,0,0,0-9.33,0-9.33Z" style="fill: #fffcff;"/>
  <path d="m105.62,69.42c.22-.3.43-.61.65-.91-.21.3-.42.61-.65.91Zm-.82,1.14c.28-.38.55-.76.82-1.14-.26.38-.53.76-.82,1.14Zm-.64.86c.21-.29.43-.57.64-.86-.27.38-.56.76-.85,1.14.07-.09.14-.19.21-.28Z" style="fill: #f05a94;"/>
  <path d="m104.35,108.86c1.09,4.53,1.53,10.27-2.8,11.08-4.37.82-13.24-6.84-15.71-15.35-1.48-5.09-.23-10.36.8-13.38l17.21,17.25h.01c.14.15.3.28.47.38,0,0,.01.02.02.02Z" style="fill: #ffc107;"/>
  <path d="m104.35,108.85h-.02c-.17-.11-.33-.24-.47-.39l-17.22-17.25c.15-.42.29-.8.41-1.13.18-.16.36-.33.54-.5l15.77,15.79c.31.96.68,2.17.99,3.48Z" style="fill: #c67500;"/>
  <path d="m104.16,71.42c-.07.09-.14.19-.21.28-.29.38-.58.76-.88,1.13-.29.38-.59.75-.89,1.13-1.54,1.91-3.16,3.8-4.82,5.65-.95,1.05-1.91,2.08-2.88,3.1-.34.36-.68.71-1.01,1.05-.97,1.01-1.95,1.99-2.93,2.96h-.01l-2.93-2.94c3.43-3.97,6.8-8.18,9.75-12.45l6.73.03s.08.06.08.06Z" style="fill: #ff6a8e;"/>
  <path d="m86.64,91.21l17.22,17.25h-.01l-17.21-17.25Z" style="fill: #c67500;"/>
  <path d="m103.36,105.37l-15.77-15.79c.16-.16.33-.32.5-.49l14.48,14.12s.34.85.78,2.16c0,0,.01,0,.01,0Z" style="fill: #ffa000;"/>
  <path d="m102.18,73.96c.3-.38.6-.75.89-1.13-.28.38-.58.75-.89,1.13Z" style="fill: #f05a94;"/>
  <path d="m75.29,71.25l22.06.08c-2.95,4.27-6.32,8.48-9.75,12.45l-12.41-12.43.1-.1Z" style="fill: #ffa0b7;"/>
  <path d="m94.48,82.71c.97-1.02,1.93-2.05,2.88-3.1-.94,1.05-1.9,2.08-2.88,3.1Zm-3.94,4.01c.98-.97,1.96-1.95,2.93-2.96-.97,1.01-1.95,2-2.93,2.96Z" style="fill: #f05a94;"/>
  <path d="m90.54,86.72l.31.31c-.36.13-.69.25-.98.36.22-.22.45-.44.67-.67Z" style="fill: #ffa000;"/>
  <path d="m90.53,86.72h.01c-.22.23-.45.45-.67.67h-.01s-.01.01-.02.01c.23-.22.46-.45.69-.68Z" style="fill: #ffa000;"/>
  <path d="m87.6,83.78l2.93,2.94c-.23.23-.46.46-.69.68-1,.38-1.58.67-1.58.67l.43.44c-.2.2-.4.39-.6.58l-.43-.42s-.12.24-.31.67l-2.46-2.47c.9-1.01,1.81-2.04,2.71-3.09Z" style="fill: #ffa000;"/>
  <path d="m89.86,87.39c-.15.15-.3.3-.46.44.15-.14.29-.28.44-.43,0,0,0-.01.02-.01Z" style="fill: #ffa000;"/>
  <path d="m89.84,87.4c-.15.15-.29.29-.44.43-.16.16-.33.32-.49.48-.07.06-.15.13-.22.2l-.43-.44s.58-.29,1.58-.67Z" style="fill: #ffa000;"/>
  <path d="m88.91,88.31l-.21.21h-.01c.07-.08.15-.15.22-.21Z" style="fill: #ffa000;"/>
  <path d="m88.7,88.52l-.6.57c.2-.19.4-.38.6-.58h.01-.01Z" style="fill: #ffa000;"/>
  <path d="m87.82,25.15c2.79,1.97,2.43,5.9.47,7.8-.76.73-1.56,1.37-2.37,1.92h-11.01c.96-2.34,2.17-4.6,3.61-6.62,2.26-3.17,6.57-5.03,9.3-3.1Z" style="fill: #abd3ff;"/>
  <path d="m88.09,89.09c-.17.17-.34.33-.5.49h-.01c.17-.17.34-.33.51-.49Z" style="fill: #ffa000;"/>
  <path d="m87.66,88.67l.43.42-.51.48-.23-.23c.19-.43.31-.67.31-.67Zm-12.47-17.32l12.41,12.43c-.9,1.05-1.81,2.08-2.71,3.09l-17.85-17.87c.19-.25.42-.49.66-.7.85-.73,2.03-1.17,3.04-1.42,0,0,4.45,4.47,4.45,4.47Z" style="fill: #ffa000;"/>
  <path d="m87.58,89.57h.01c-.18.18-.36.35-.54.51.01,0,.01-.01.01-.02.17-.16.35-.32.52-.49Z" style="fill: #c67500;"/>
  <path d="m87.35,89.34l.23.23c-.17.17-.35.33-.52.49.11-.28.21-.52.29-.72Z" style="fill: #c67500;"/>
  <path d="m84.85,89.41l-1.17-1.18c.4-.45.81-.9,1.22-1.36l2.46,2.47c-.08.2-.18.44-.29.72,0,.01,0,.02-.01.02-.23.21-.46.43-.69.64-.03.03-.07.06-.1.1h-.01l-1.4-1.41h0Z" style="fill: #c67500;"/>
  <path d="m86.36,90.72c.23-.21.46-.43.69-.64-.23.22-.46.44-.69.64Z" style="fill: #c67500;"/>
  <path d="m86.36,90.72c.23-.2.46-.42.69-.64-.12.33-.26.71-.41,1.13l-.38-.39.1-.1Z" style="fill: #c67500;"/>
  <path d="m86.26,90.82l.38.39-.39-.38h.01Z" style="fill: #c67500;"/>
  <path d="m86.25,90.82l-.89.83c-.93.85-1.84,1.68-2.74,2.49-.34.29-.68.59-1.01.89-.67.59-1.33,1.16-1.98,1.73-1.29,1.11-2.54,2.16-3.71,3.14-.53.44-1.05.86-1.56,1.28-.05.04-.1.08-.15.13-.74.59-1.44,1.16-2.1,1.69-.82.65-1.58,1.25-2.26,1.79-.21.15-.41.31-.6.46-.09.06-.17.13-.25.19-.47.36-.9.69-1.27.98-.48.36-.88.65-1.18.88-.16.11-.29.21-.39.29-.01,0-.01.01-.02.01.12-.61.26-1.15.45-1.36,3.26-3.66,9.42-9.66,15.99-16.82h2.26s1.41,1.4,1.41,1.4Z" style="fill: #5d7de3;"/>
  <path d="m84.85,89.41l1.4,1.41-1.41-1.41h.01Z" style="fill: #c67500;"/>
  <path d="m74.91,34.86h11.01c-3.66,2.51-7.53,3.21-9.24,3.21-1.45,0-2.48-1.41-1.95-2.76,0,0,.18-.45.18-.45Z" style="fill: #ffbac8;"/>
  <path d="m67.04,69l17.85,17.87c-.41.46-.82.91-1.22,1.36h-.01l-17.55-17.59c.24-.56.54-1.13.93-1.64Z" style="fill: #c67500;"/>
  <path d="m83.67,88.23l1.17,1.18h-2.26c.36-.38.72-.78,1.08-1.18h.01Z" style="fill: #ff6a8e;"/>
  <path d="m65.88,71.26c.07-.2.15-.41.23-.62l17.55,17.59c-.36.4-.72.8-1.08,1.19l-38.27.08-.13.13c-2.46-2.31-4.85-4.69-7.18-7.13-3.26-3.42-6.64-7.11-9.67-11.07l.24-.18h34.28c.25,1.09.75,2.1,1.46,2.96.79.95,1.97.32,2.07-.99.01,0,.13-.88.5-1.96Z" style="fill: #ffa0b7;"/>
  <path d="m85.36,91.65c-.92.86-1.84,1.68-2.74,2.49.9-.81,1.81-1.64,2.74-2.49Z" style="fill: #f05a94;"/>
  <path d="m44.31,89.5l38.27-.08c-6.57,7.16-12.73,13.16-15.99,16.82-.19.21-.33.75-.45,1.36-.16.13-.25.19-.25.19-1.9-1.37-3.74-2.81-5.57-4.26-5.57-4.39-10.98-9.01-16.14-13.89s.13-.14.13-.14Z" style="fill: #8fc3ff;"/>
  <path d="m81.61,95.03c-.67.59-1.33,1.17-1.98,1.73.65-.57,1.31-1.14,1.98-1.73Zm-1.21-75.97c-.41.19-.82.4-1.21.61.39-.22.8-.42,1.21-.61Zm-6.04,82.12c.51-.42,1.03-.84,1.56-1.28-.54.45-1.06.88-1.56,1.28Z" style="fill: #f05a94;"/>
  <path d="m74.12,64.58c.82.86,0,1.98-1.2,1.93,0,0-.98.06-2.18.37l-.84-.84c-.33-.33-.78-.51-1.24-.51-.75,0-1.88.14-2.6.86-.41.41-.67.91-.79,1.43-.02.06-.03.12-.04.18-.09.38-.13.74-.14,1.03-.01.36.13.71.38.97l.59.59.05.05c-.08.21-.16.42-.23.62h-4.03c-.22-.91-.26-1.86-.11-2.78.48-3.14,3.07-5.66,6.22-6.06.32-.04.64-.06.95-.06,1.97,0,3.85.8,5.21,2.22Z" style="fill: #ffaed3;"/>
  <path d="m72.11,103c.66-.53,1.36-1.1,2.1-1.69-.74.6-1.44,1.17-2.1,1.69Z" style="fill: #f05a94;"/>
  <path d="m69.9,66.04l.84.84c-1.01.25-2.19.69-3.04,1.42-.24.21-.47.45-.66.7l-1.62-1.63c-.06.15-.11.3-.15.45.12-.52.38-1.02.79-1.43.72-.72,1.85-.86,2.6-.86.46,0,.91.18,1.24.51h0Z" style="fill: #ffa000;"/>
  <path d="m69.85,104.79c-.21.16-.41.31-.6.46.19-.15.39-.31.6-.46Z" style="fill: #f05a94;"/>
  <path d="m68.91,53.03v9.33c-.31,0-.63.02-.95.06-3.15.4-5.74,2.92-6.22,6.06-.15.97-.1,1.91.11,2.78H27.57l-.24.17c-4.32-5.6-7.97-11.74-9.66-18.39l.13-.03h25.93s25.18.02,25.18.02Z" style="fill: #fffcff;"/>
  <path d="m69,105.44c-.48.37-.9.7-1.27.98.37-.29.8-.62,1.27-.98Z" style="fill: #f05a94;"/>
  <path d="m65.42,67.37l1.62,1.63c-.39.51-.69,1.08-.93,1.64l-.05-.05c-.7-.71-.98-1.68-.83-2.59.01-.06.02-.12.04-.18.04-.15.09-.3.15-.45Z" style="fill: #c67500;"/>
  <path d="m66.55,107.3c-.16.12-.29.22-.39.29.1-.08.23-.18.39-.29Z" style="fill: #f05a94;"/>
  <path d="m66.06,70.59l-.59-.59c-.25-.26-.39-.61-.38-.97,0-.29.05-.65.14-1.03-.15.91.13,1.88.83,2.59Z" style="fill: #c67500;"/>
  <path d="m65.88,71.26c-.37,1.08-.49,1.96-.5,1.96-.1,1.31-1.28,1.94-2.07.99-.71-.86-1.21-1.87-1.46-2.95h4.03Zm-.23-36.4c.05.16.1.31.15.47l-2.07,4.87c-.37.86-1.61.83-1.93-.05-.51-1.39-1.27-3.25-2.3-5.29h6.15Z" style="fill: #ff6a8e;"/>
  <path d="m65.58,34.67c.03.06.05.13.07.19h-6.15c-3.53-7.01-10.24-16.18-21.25-16.18-4.09,0-8.36,1.02-12.16,3.13l-.14-.14c.14-.12.28-.22.42-.31l.21-.15c.25-.17.5-.34.76-.5.34-.21.68-.42,1.03-.61.32-.18.64-.35.96-.51.03-.02.07-.03.11-.05.31-.16.62-.31.94-.45.39-.17.79-.34,1.19-.49.3-.12.59-.23.89-.33,1.15-.4,2.33-.71,3.52-.94.25-.06.5-.1.75-.14,1.44-.24,2.89-.36,4.31-.36.15,0,.31,0,.46.01.27,0,.54.01.81.02.18,0,.35,0,.52.03,14.9,1.02,21.42,14.61,22.75,17.78Z" style="fill: #5d7de3;"/>
  <path d="m65.27,67.82c-.02.06-.03.12-.04.18.01-.06.02-.12.04-.18Z" style="fill: #ffa000;"/>
  <path d="m65.58,34.67c-1.33-3.17-7.85-16.76-22.75-17.78,12.36.73,19.8,9.06,22.75,17.78Z" style="fill: #5d7de3;"/>
  <path d="m59.5,34.86h-20.5l-.08-.09c.19-.14.37-.28.56-.42,2.27-1.72,3.38-5.8.84-7.79-3.13-2.46-6.64-1.85-9.55-.02l-4.68-4.73c3.8-2.11,8.07-3.13,12.16-3.13,11.01,0,17.72,9.17,21.25,16.18Z" style="fill: #8fc3ff;"/>
  <path d="m43.73,48.07v4.95h-15.82v-2.18c.5,0,.99-.34,1.08-.94.37-2.64,1.09-5.22,2.3-7.59.83-1.63,1.81-2.84,2.91-3.87l9.52,9.62h0Z" style="fill: #ffa0b7;"/>
  <path d="m43.73,39.63v5.93l-8.2-8.29c1.02-.81,2.12-1.57,3.28-2.42h.19s4.73,4.78,4.73,4.78Z" style="fill: #ffa0b7;"/>
  <path d="m35.53,37.27l8.2,8.29h0v2.5l-9.52-9.62c.42-.42.87-.8,1.33-1.17h-.01Z" style="fill: #ffa0b7;"/>
  <path d="m40.32,26.56c2.54,1.99,1.43,6.07-.84,7.79-.19.14-.37.28-.56.42l-8.15-8.23c2.91-1.83,6.42-2.44,9.55.02Z" style="fill: #abd3ff;"/>
  <path d="m39,34.85h-.19s.08-.06.11-.08c0,0,.08.08.08.08Z" style="fill: #f05a94;"/>
  <path d="m30.77,26.54l8.15,8.23-.11.08h-5.68l-5.54-5.6c.92-1.02,2-1.97,3.18-2.71Z" style="fill: #abd3ff;"/>
  <path d="m33.13,34.85h5.68c-1.16.85-2.26,1.61-3.28,2.42l-2.4-2.42Z" style="fill: #ffbac8;"/>
  <path d="m36.73,17.19c-.25.04-.5.08-.75.14.25-.06.5-.1.75-.14Z" style="fill: #f05a94;"/>
  <path d="m33.13,34.85l2.4,2.42c-.46.37-.91.75-1.33,1.17l-3.56-3.59s2.49,0,2.49,0Z" style="fill: #ffbac8;"/>
  <path d="m30.64,34.85l3.56,3.59c-1.1,1.03-2.08,2.24-2.91,3.87-1.21,2.37-1.93,4.95-2.3,7.59-.09.6-.58.94-1.08.94-.37,0-.73-.17-.95-.56-2.58-4.58-3.79-10.42-2.43-15.44h6.11,0Z" style="fill: #ffbac8;"/>
  <path d="m33.52,17.93c-.36.11-.71.22-1.06.34.35-.12.7-.24,1.06-.34Z" style="fill: #f05a94;"/>
  <path d="m33.13,34.85h-2.49l-4.16-4.21c.16-.24.34-.47.52-.7.19-.23.38-.47.59-.69l5.54,5.6Z" style="fill: #abd3ff;"/>
  <path d="m26.09,21.81l4.68,4.73c-1.18.74-2.26,1.69-3.18,2.71l-4.79-4.83c.58-.62,1.19-1.2,1.83-1.73.01,0,.01-.01.02-.01.47-.31.95-.6,1.44-.87Z" style="fill: #8fc3ff;"/>
  <path d="m26.48,30.64l4.16,4.21h-6.11c.41-1.5,1.05-2.92,1.95-4.21Z" style="fill: #abd3ff;"/>
  <path d="m29.33,19.59c-.32.16-.64.33-.96.51.31-.18.63-.35.96-.51Z" style="fill: #f05a94;"/>
  <path d="m27.91,50.84v2.17h-10.11l-.13.03c-.06-.23-.12-.45-.17-.68-1.62-6.91-1.55-12.73-.33-17.54l.12.02h7.24c-1.36,5.02-.15,10.86,2.43,15.44.22.39.58.56.95.56Z" style="fill: #ffa0b7;"/>
  <path d="m22.8,24.42l4.79,4.83c-.21.22-.4.46-.59.69-.18.23-.36.46-.52.7l-4.84-4.88c.37-.47.76-.91,1.16-1.34Z" style="fill: #8fc3ff;"/>
  <path d="m27.34,20.71c-.26.16-.51.33-.76.5.25-.18.5-.34.76-.5Z" style="fill: #f05a94;"/>
  <path d="m21.64,25.76l4.84,4.88c-.9,1.29-1.54,2.71-1.95,4.2h-7.24l-.12-.02c.92-3.57,2.47-6.58,4.47-9.06Z" style="fill: #8fc3ff;"/>
  <path d="m26.37,21.36c-.14.09-.28.19-.42.31h-.01c.14-.12.29-.22.43-.31Z" style="fill: #f05a94;"/>
  <path d="m25.95,21.67l.14.14c-.49.27-.97.56-1.44.87.03-.03.05-.05.08-.07.26-.22.53-.44.8-.64.14-.11.28-.21.42-.3Z" style="fill: #5d7de3;"/>
  <path d="m25.94,21.66h.01c-.14.1-.28.2-.42.31.13-.11.27-.22.41-.31Z" style="fill: #f05a94;"/>
  <path d="m17.87,13.5l8.07,8.16c-.14.09-.28.2-.41.31-.27.2-.54.41-.8.64-.03.02-.06.04-.08.07-.01,0-.01.01-.02.01-.64.53-1.25,1.11-1.83,1.73l-5.37-5.43c-.69-.75-1.15-1.68-1.31-2.69-.15-.94.04-1.99.72-2.66-.25-.02-.49-.05-.74-.08.56.03,1.16.02,1.77-.06Z" style="fill: #ffa000;"/>
  <path d="m25.53,21.97c-.27.2-.54.42-.8.64.26-.23.53-.44.8-.64Z" style="fill: #f05a94;"/>
  <path d="m21.9,4.41c1.92,1.93,2.05,5.05-.02,7.17-.09.09-.19.18-.28.27-.09.08-.19.16-.28.24-1,.78-2.2,1.26-3.46,1.4l-1.82-1.84c.93-.18,1.9-.51,2.8-1.06,2.77-1.7,2.87-5.13,1.57-7.34.35.21.7.45,1.01.73.17.13.33.28.48.43Z" style="fill: #ffa000;"/>
  <path d="m17.43,18.99l5.37,5.43c-.4.43-.79.87-1.16,1.34l-8.02-8.11-.04-.04c.27-2.21-.32-4.2-.44-4.56.52.16,1.61.45,2.93.51h.03c.25.03.49.06.74.08-.68.67-.87,1.72-.72,2.66.13.77.43,1.72,1.31,2.69Z" style="fill: #c67500;"/>
  <path d="m21.9,4.4c-.15-.14-.31-.29-.48-.42.17.12.33.27.48.42Z" style="fill: #ffa000;"/>
  <path d="m21.6,11.85c.09-.09.19-.18.28-.27-.09.09-.18.18-.28.27Zm-.93.69c.23-.14.45-.29.65-.45-.2.16-.42.32-.65.46-.88.55-1.86.83-2.8.95h-.01c.95-.12,1.92-.41,2.81-.96Zm-.26-9.29c1.3,2.21,1.2,5.64-1.57,7.34-.9.55-1.87.88-2.8,1.06l-6.2-6.26c-1.15-1.17-3.03-1.17-4.2-.02s-1.17,3.03-.02,4.2l6.14,6.21c-.09.66-.23,1.3-.43,1.93-.3.93-.94,1.7-1.75,2.27-.22.16-.46.3-.71.43-.26.14-.52.25-.79.34-1.64.59-3.5.5-4.64-.48-.18-.16-.35-.32-.52-.49,0,.01,0,.03.02.04l-.03-.03c-1.39-2.63-1.62-5.66-1.62-5.66L0,1.21C-.05.6.39.06,1,0h.21l12.93,1.28s3.51.27,6.26,1.95h.01v.02Z" style="fill: #ffc107;"/>
  <path d="m17.86,13.49h.01c-.61.09-1.21.1-1.77.07h-.03s-.06-.01-.09-.02c.59.04,1.23.04,1.88-.05Z" style="fill: #ffc107;"/>
  <path d="m16.04,11.65l1.82,1.84c-.65.09-1.29.09-1.88.05-1.52-.2-3.03-.64-4.09-1.72.02,0,.03.28.03.65-.02-.44-.06-.71-.06-.71,0,0,1.96.34,4.18-.11Z" style="fill: #ffa000;"/>
  <path d="m15.98,13.54s.06.01.09.02c-1.32-.06-2.41-.35-2.93-.51.5.14,1.56.42,2.84.49Z" style="fill: #c67500;"/>
  <path d="m9.84,5.39l6.2,6.26c-2.22.45-4.18.11-4.18.11,0,0,.04.27.06.71.01.03.01.05.01.08,0,.71-.01,1.68-.02,1.79-.03.48-.07.97-.15,1.44l-6.14-6.21c-1.15-1.17-1.15-3.05.02-4.2s3.05-1.15,4.2.02Z" style="fill: #ffc107;"/>
  <path d="m11.89,11.82c1.06,1.08,2.57,1.52,4.09,1.72-1.28-.07-2.34-.35-2.84-.5.12.37.71,2.36.44,4.57l-1.8-1.82c.19-1.3.18-2.5.15-3.24,0-.03,0-.05-.01-.08,0-.37,0-.65-.03-.65Zm1.73,5.83s-.04.11-.06.17c0-.06.01-.11.02-.17v-.04l.04.04Z" style="fill: #c67500;"/>
  <path d="m13.58,17.61v.04c0,.07-.02.15-.03.22,0,0-.01,0,0,.01-.05.18-.08.4-.13.63-.03.13-.06.25-.1.37-.02.07-.03.13-.05.19-.01,0,0,0,0,0-.06.18-.13.36-.19.53-.14.37-.31.71-.51,1.04h-.01l-.21.33s-.01,0-.01.01c-.08.1-.15.2-.23.3h-.01c-.07.1-.15.2-.23.29,0,0-.01,0-.01.01-.09.09-.17.17-.25.26h-.01c-.09.08-.17.16-.26.23-.09.09-.18.16-.27.22h-.01c-.09.07-.18.14-.27.19h-.01c-.09.07-.19.12-.28.17h-.01c-.1.07-.2.12-.29.16h-.01c-.1.05-.2.09-.3.13h-.01c-.1.05-.2.08-.3.11-1.79.6-3.77.14-5.14-1.23-.6-.6-1.08-1.31-1.48-2.06.16.16.32.31.49.46,1.15.98,3,1.07,4.65.47.27-.09.53-.2.79-.34.25-.12.49-.27.71-.43.81-.57,1.45-1.34,1.75-2.27h.01c.21-.64.35-1.29.44-1.92l1.8,1.82s-.02.06-.02.06Z" style="fill: #c67500;"/>
  <path d="m13.58,17.65c0,.06-.02.11-.02.17-.01.02-.01.03-.01.05,0,0,.03-.22.03-.22Z" style="fill: #c67500;"/>
  <path d="m13.55,17.88c-.04.22-.08.44-.13.67-.03.11-.06.22-.1.33.04-.12.07-.24.1-.37.05-.23.08-.45.13-.63Zm-.28,1.2c-.05.17-.11.35-.19.53.06-.17.13-.35.19-.53Z" style="fill: #ffa000;"/>
  <path d="m13.08,19.62c-.06.17-.14.35-.23.52.08-.17.16-.35.22-.52h0Z" style="fill: #ffc107;"/>
  <path d="m13.07,19.62c-.06.17-.14.35-.22.52-.09.17-.18.34-.29.51.2-.33.37-.67.51-1.03Zm-.51,1.03h-.01.01Z" style="fill: #ffa000;"/>
  <path d="m12.56,20.66c-.07.11-.14.22-.22.33l.21-.33h.01Z" style="fill: #ffc107;"/>
  <path d="m12.34,20.99s-.01,0,0,.01h-.01.01Z" style="fill: #ffa000;"/>
  <path d="m12.34,21c-.08.1-.15.2-.24.3.08-.1.15-.2.23-.3h.01Z" style="fill: #ffc107;"/>
  <path d="m12.1,21.3h-.01.01s0,0,0,0Z" style="fill: #ffa000;"/>
  <path d="m12.1,21.31c-.07.09-.15.19-.24.28.08-.09.16-.19.23-.28h.01Z" style="fill: #ffc107;"/>
  <path d="m11.93,12.55c.03.74.04,1.94-.15,3.24h-.02c.08-.48.12-.97.15-1.45,0-.11.02-1.08.02-1.79Z" style="fill: #c67500;"/>
  <path d="m11.86,21.59s-.01,0,0,.01h-.01.01Z" style="fill: #ffa000;"/>
  <path d="m11.86,21.6l-.26.26c.08-.09.16-.17.25-.26h.01Z" style="fill: #ffc107;"/>
  <path d="m11.76,15.78h.02c-.09.64-.23,1.29-.44,1.92h-.01c.2-.62.34-1.26.43-1.92Z" style="fill: #c67500;"/>
  <path d="m11.59,21.87h.01-.01Zm0,0c-.09.09-.17.17-.26.24.09-.08.17-.16.26-.24Z" style="fill: #ffc107;"/>
  <path d="m11.33,22.1h-.01s.01.01.01.01h0Z" style="fill: #c67500;"/>
  <path d="m11.32,22.11c-.09.08-.18.16-.27.22.09-.07.18-.14.27-.22Z" style="fill: #ffc107;"/>
  <path d="m11.04,22.33c-.09.08-.18.14-.27.2.09-.06.18-.13.27-.2Z" style="fill: #ffc107;"/>
  <path d="m10.76,22.53c-.09.07-.19.13-.28.18.09-.06.19-.11.28-.18Z" style="fill: #ffc107;"/>
  <path d="m10.48,22.7h-.01s0,.01.01,0Z" style="fill: #c67500;"/>
  <path d="m10.47,22.71c-.1.06-.2.11-.29.16.09-.05.19-.1.29-.16Z" style="fill: #ffc107;"/>
  <path d="m10.17,22.87c-.1.05-.2.1-.3.14.1-.05.2-.09.3-.14Z" style="fill: #ffc107;"/>
  <path d="m9.87,23s0,.01-.01.01h.01Z" style="fill: #c67500;"/>
  <path d="m9.86,23.01c-.1.04-.2.08-.3.11.1-.04.2-.07.3-.11Z" style="fill: #ffc107;"/>
  <path d="m9.56,23.11c-1.79.61-3.78.15-5.15-1.22-.34-.34-.64-.72-.92-1.12-.21-.32-.4-.64-.58-.98l.03.03c.4.75.88,1.46,1.48,2.06,1.34,1.36,3.33,1.83,5.14,1.23Z" style="fill: #c67500;"/>
  <path d="m8.87,20.41c.25-.13.49-.27.71-.43-.22.16-.46.31-.71.43Zm-5.43-.14c1.14.98,3,1.07,4.64.48-1.65.6-3.5.51-4.65-.47-.17-.15-.33-.3-.49-.46,0-.01,0-.03-.02-.04.17.17.34.33.52.49Z" style="fill: #ffa000;"/>
  <path d="m2.91,19.79c.18.34.37.66.58.98-.22-.32-.41-.64-.58-.98Z" style="fill: #ffc107;"/>
</svg>
