<?xml version="1.0" encoding="utf-8"?>
<!-- Generator: Adobe Illustrator 27.7.0, SVG Export Plug-In . SVG Version: 6.00 Build 0)  -->
<svg version="1.1" id="Layer_4" xmlns="http://www.w3.org/2000/svg" xmlns:xlink="http://www.w3.org/1999/xlink" x="0px" y="0px"
	 viewBox="0 0 128 128" style="enable-background:new 0 0 128 128;" xml:space="preserve">
<path style="fill:#FFAED3;" d="M110.94,49.47l-4.45,3.57c-7.26,3.25-15.4,14.02-11.99,21.25l9.59-2.93l0.08,0.06
	c0.21-0.29,0.43-0.57,0.64-0.86c0.28-0.38,0.55-0.76,0.82-1.14c0.22-0.3,0.43-0.61,0.65-0.91l0.93-1.38
	c1.24-1.85,2.38-3.77,3.42-5.74c0.2-0.38,0.39-0.76,0.58-1.14c1.19-2.43,2.13-4.84,2.74-7.21L110.94,49.47
	C110.94,49.47,110.94,49.47,110.94,49.47z M68.92,62.36c-0.31,0-0.63,0.02-0.95,0.06c-3.15,0.4-5.74,2.92-6.22,6.06
	c-0.15,0.92-1.6,4.1-1.38,5.01l5.52-2.23c0.07-0.2,0.15-0.41,0.23-0.62l-0.05-0.05L65.48,70c-0.25-0.26-0.39-0.61-0.38-0.97
	c0.01-0.29,0.05-0.65,0.14-1.03c0-0.06,0.02-0.12,0.04-0.18c0.12-0.52,0.38-1.02,0.79-1.43c0.72-0.72,1.85-0.86,2.6-0.86
	c0.46,0,0.91,0.18,1.24,0.51l0.84,0.84c1.2-0.31,2.18-0.37,2.18-0.37c1.2,0.05,2.02-1.07,1.2-1.93
	C72.77,63.16,70.89,62.36,68.92,62.36C68.92,62.36,68.92,62.36,68.92,62.36z"/>
<path style="fill:#FFFCFF;" d="M68.95,47.31L27.33,52.1l-9.53,0.91l-0.13,0.03c1.69,6.65,5.34,12.79,9.66,18.39l17.29,6.65
	l17.23-6.82c-0.21-0.87-0.26-1.81-0.11-2.78c0.48-3.14,3.07-5.66,6.22-6.06c0.32-0.04,0.64-0.06,0.95-0.06
	c1.97,0,3.85,0.8,5.21,2.22c0.82,0.86,0,1.98-1.2,1.93c0,0-0.98,0.06-2.18,0.37l4.45,4.47l8.26,2.5l13.9-2.52
	c4.24-6.12,7.62-12.38,9.13-18.3L68.95,47.31C68.95,47.31,68.95,47.31,68.95,47.31z"/>
<path style="fill:#FF6A8E;" d="M114.86,35.88c-0.07-0.34-0.14-0.68-0.22-1l-10.74-4.02c-2.19,3.57,1.86,10.55,0.26,17.5
	c-0.06,0.24,1.6,4.3,2.32,4.69h7.46c0.06-0.23,0.12-0.45,0.17-0.68C115.61,45.96,115.74,40.48,114.86,35.88
	C114.86,35.88,114.86,35.88,114.86,35.88z M97.35,71.33c-8.89,3.34-11.82,8.05-9.75,12.45l2.93,2.94h0.01
	c0.98-0.97,1.96-1.95,2.93-2.96c0.33-0.34,0.67-0.69,1.01-1.05c0.97-1.02,1.93-2.05,2.88-3.1c1.66-1.85,3.28-3.74,4.82-5.65
	c0.3-0.38,0.6-0.75,0.89-1.13c0.3-0.37,0.59-0.75,0.88-1.13c0.07-0.09,0.14-0.19,0.21-0.28l-0.08-0.06L97.35,71.33
	C97.35,71.33,97.35,71.33,97.35,71.33z M83.66,88.23c-0.36,0.4-2.21,1.49-2.57,1.87l3.75-0.69l-1.17-1.18H83.66z M63.31,74.21
	c0.79,0.95,1.97,0.32,2.07-0.99c0.01,0,0.13-0.88,0.5-1.96h-4.03C62.1,72.34,62.6,73.35,63.31,74.21z M63.73,40.2l2.07-4.87
	c-0.05-0.16-0.1-0.31-0.15-0.47l-7.99-1.94c1.03,2.04,3.63,5.84,4.14,7.23C62.12,41.03,63.36,41.06,63.73,40.2L63.73,40.2z"/>
<path style="fill:#FFBAC8;" d="M74.91,34.86l-3.76,2.01c-0.53,1.35,7.69,5.08,9.14,5.08c1.71,0,4.54-4.3,5.63-7.09l-5.14-2.52
	L74.91,34.86C74.91,34.86,74.91,34.86,74.91,34.86z M31.19,33.03l-3.52,0.41l-3.13,1.4c-1.36,5.02-4.31,10.05-1.73,14.63
	c0.22,0.39,4.16,2.63,4.53,2.63c0.5,0,4.45-0.66,4.54-1.26c0.37-2.64-0.02-4.54,1.19-6.91c0.83-1.63,1.87-1.64,2.97-2.67
	c0.42-0.42,3.06-1.78,3.52-2.15c1.02-0.81-1.9-3.41-0.74-4.26l-2.48-1.57L31.19,33.03C31.19,33.03,31.19,33.03,31.19,33.03z"/>
<path style="fill:#ABD3FF;" d="M89.15,23.86c-2.73-1.93-11.39,0.46-13.65,3.63c-1.44,2.02,0.37,5.03-0.59,7.37h11.01
	c0.81-0.55,3.94-1.22,4.7-1.95c1.96-1.9,1.32-7.09-1.47-9.06l0,0V23.86z M44.07,24.42c-3.13-2.46-9.77-3.65-12.68-1.82
	c-1.18,0.74-3.14,1.32-4.06,2.34c-0.21,0.22-1.2,1.73-1.39,1.96c-0.18,0.23-1.25,2.52-1.41,2.76c-0.9,1.29,0.41,3.7,0,5.2h14.28
	l0.11-0.08c0.19-0.14,3.95-1.18,4.17-1.27C47.9,31.5,46.61,26.42,44.07,24.42L44.07,24.42L44.07,24.42z"/>
<path style="fill:#8FC3FF;" d="M85.92,34.88l10.16,5.95l11.22-5.95c-2.45-11.17-3.14-14.56-16.45-16.74
	c-2.63-0.43-9.48,0.7-11.66,1.53c-8.38,4.53-12.31,13.11-13.17,15.19l4.08,6.4l4.81-6.4c0.96-2.33,2.17-4.59,3.61-6.61
	c2.26-3.17,6.57-5.03,9.3-3.1c2.79,1.97,2.43,5.9,0.47,7.8C87.53,33.68,86.73,34.32,85.92,34.88
	C85.92,34.88,85.92,34.88,85.92,34.88z M44.18,89.64c5.16,4.88,10.57,9.5,16.14,13.89c1.83,1.45,3.67,2.89,5.57,4.26
	c0,0,0.09-0.06,0.25-0.19c0.12-0.61,3.33-3.54,3.52-3.75c3.26-3.66,6.35-7.27,12.92-14.43l-28.77-7.54
	C53.81,81.88,39.02,84.76,44.18,89.64z M39.22,18.14c-4.09,0-8.26,0.81-12.06,2.92c-0.49,0.27-2.05,1.31-2.52,1.62
	c-0.01,0-0.01,0.01-0.02,0.01c-0.64,0.53-1.25,1.11-1.83,1.73c-0.4,0.43-0.79,0.87-1.16,1.34c-2,2.48-3.55,5.49-4.47,9.06l3.89,2.83
	l3.47-2.81c0.41-1.49,1.05-2.91,1.95-4.2c0.16-0.24,0.34-0.47,0.52-0.7c0.19-0.23,0.38-0.47,0.59-0.69c0.92-1.02,2-1.97,3.18-2.71
	c2.91-1.83,6.42-2.44,9.55,0.02c2.54,1.99,1.43,6.07-0.84,7.79c-0.19,0.14-0.37,0.28-0.56,0.42l-1.6,1.16l22.18-1.07
	C55.96,27.85,50.22,18.14,39.22,18.14L39.22,18.14L39.22,18.14z"/>
<path style="fill:#5D7DE3;" d="M110.86,26.37c-0.69-0.96-1.47-1.86-2.31-2.69c-0.55-0.55-1.13-1.07-1.74-1.55
	c-1.1-0.87-2.28-1.64-3.52-2.29c-3.85-2.04-8.26-3.02-12.7-3.02c-0.59,0-1.16,0.02-1.73,0.06c-0.52,0.03-1.03,0.08-1.53,0.15
	c-0.99,0.13-1.97,0.32-2.94,0.57c-0.02,0.01-0.04,0.01-0.06,0.02c-0.42,0.11-0.84,0.23-1.24,0.36c-1.35,0.44-2.65,1.01-3.9,1.68
	c2.18-0.83,4.83-0.99,7.5-0.99c9.42,0,18.16,5.03,20.61,16.2h7.34C113.88,31.56,112.57,28.73,110.86,26.37L110.86,26.37z
	 M82.58,89.41c-6.57,7.16-12.73,13.16-15.99,16.82c-0.19,0.21-0.33,0.75-0.45,1.36c0.01,0,0.01-0.01,0.02-0.01
	c0.1-0.08,0.23-0.18,0.39-0.29c0.3-0.23,0.7-0.52,1.18-0.88c0.37-0.29,0.8-0.62,1.27-0.98c0.08-0.06,0.16-0.13,0.25-0.19
	c0.19-0.15,0.39-0.31,0.6-0.46c0.68-0.54,1.44-1.14,2.26-1.79c0.66-0.53,1.36-1.1,2.1-1.69c0.05-0.05,0.1-0.09,0.15-0.13
	c0.51-0.42,1.03-0.84,1.56-1.28c1.17-0.98,2.42-2.03,3.71-3.14c0.65-0.57,1.31-1.14,1.98-1.73c0.33-0.3,0.67-0.6,1.01-0.89
	c0.9-0.81,1.81-1.64,2.74-2.49l0.89-0.83l-1.12-1.4C85.13,89.41,82.58,89.41,82.58,89.41z M44.29,17.02
	c-0.48-0.06-0.96-0.11-1.46-0.14c-0.17-0.03-0.34-0.03-0.52-0.03c-0.27-0.01-0.54-0.02-0.81-0.02c-0.15-0.01-0.31-0.01-0.46-0.01
	c-1.42,0-2.87,0.12-4.31,0.36c-0.25,0.04-0.5,0.08-0.75,0.14c-1.19,0.23-2.37,0.54-3.52,0.94c-0.3,0.1-0.59,0.21-0.89,0.33
	c-0.4,0.15-0.8,0.32-1.19,0.49c-0.32,0.14-0.63,0.29-0.94,0.45c-0.04,0.02-0.08,0.03-0.11,0.05c-0.32,0.16-0.64,0.33-0.96,0.51
	c-0.35,0.19-0.69,0.4-1.03,0.61c-0.26,0.16-0.51,0.33-0.76,0.5l-0.21,0.15c-0.14,0.09-0.28,0.19-0.42,0.31
	c-0.14,0.09-0.28,0.19-0.42,0.3c-0.27,0.2-0.54,0.42-0.8,0.64c-0.03,0.02-0.05,0.04-0.08,0.07c0.47-0.31,0.95-0.6,1.44-0.87
	c3.8-2.11,8.07-3.13,12.16-3.13c11.01,0,17.72,9.17,21.25,16.18h6.15c-0.02-0.06-0.04-0.13-0.07-0.19
	C62.75,26.29,55.77,18.3,44.29,17.02L44.29,17.02z"/>
<path style="fill:#FFC107;" d="M104.18,86.25c-5.06-1.47-10.31-0.24-13.33,0.78l13.31,16.38c0.15,0.15,4.17,1.17,4.28,1.35
	c4.53,1.08,10.28,1.53,11.09-2.8C120.35,97.59,112.69,88.72,104.18,86.25z M104.33,108.84c-0.17-0.1-0.33-0.23-0.47-0.38l-0.05-2.63
	L86.64,91.21c-1.03,3.02-2.28,8.29-0.8,13.38c2.47,8.51,11.34,16.17,15.71,15.35c4.33-0.81,3.89-6.55,2.8-11.08L104.33,108.84
	L104.33,108.84z M18.84,10.59c2.77-1.7,2.87-5.13,1.57-7.34V3.23l0,0c-2.75-1.68-6.26-1.95-6.26-1.95L1.21,0H1
	C0.39,0.06-0.05,0.6,0,1.21l1.29,12.92c0,0,0.23,3.03,1.62,5.66c0,0,0.35,0.32,0.53,0.48c1.14,0.98,3,1.07,4.64,0.48
	c0.27-0.09,0.53-0.2,0.79-0.34c0.25-0.13,0.49-0.27,0.71-0.43c0.81-0.57,1.45-1.34,1.75-2.27c0.2-0.63,0.34-1.27,0.43-1.93
	c0.08-0.47,0.12-0.96,0.15-1.44c0.01-0.11,0.02-1.08,0.02-1.79c0-0.03,0-0.05-0.01-0.08c-0.02-0.44-0.06-0.71-0.06-0.71
	s1.96,0.34,4.18-0.11C16.97,11.47,17.94,11.14,18.84,10.59C18.84,10.59,18.84,10.59,18.84,10.59z"/>
<path style="fill:#FFA0B7;" d="M65.88,71.26c-0.37,1.08-0.49,1.96-0.5,1.96c-0.1,1.31-1.28,1.94-2.07,0.99
	c-0.71-0.86-1.21-1.87-1.46-2.96H27.57l-0.24,0.18c3.03,3.96,6.41,7.65,9.67,11.07c2.33,2.44,4.72,4.82,7.18,7.13l0.13-0.13
	l38.27-0.08c0.36-0.39,0.72-0.79,1.08-1.19L66.11,70.64C66.03,70.85,65.95,71.06,65.88,71.26z M107.3,34.88L107.3,34.88H85.92
	c-3.66,2.5-7.53,3.2-9.24,3.2c-1.45,0-2.48-1.41-1.95-2.76l0.18-0.45h-8.89c-0.12,0.3-0.18,0.47-0.18,0.47s-0.06-0.17-0.18-0.47
	h-0.01c0.05,0.16,0.1,0.31,0.15,0.47l-2.07,4.87c-0.37,0.86-1.61,0.83-1.93-0.05c-0.67-1.81-1.43-3.58-2.3-5.3H38.81
	c-1.16,0.85-2.26,1.61-3.28,2.42l0,0c-0.46,0.37-0.91,0.75-1.32,1.17l0,0c-1.1,1.03-2.08,2.24-2.91,3.87
	c-1.21,2.37-1.93,4.95-2.3,7.59c-0.09,0.6-0.58,0.94-1.08,0.94c-0.37,0-0.73-0.17-0.95-0.56c-2.58-4.58-3.79-10.42-2.43-15.44H17.3
	l-0.12-0.02c-1.22,4.81-1.29,10.63,0.33,17.54c0.05,0.23,0.11,0.45,0.17,0.68l0.13-0.03h10.11h15.82l25.18,0.02h37.57
	c0.07-0.25,0.12-0.49,0.18-0.73c1.6-6.95,1.68-12.73,0.64-17.43l0,0L107.3,34.88z M75.09,71.25l0.1,0.1L87.6,83.78
	c3.43-3.97,6.8-8.18,9.75-12.45l-22.06-0.08H75.09z"/>
<polygon style="fill:#FFFCFF;" points="66.74,71.26 66.11,70.64 65.88,71.26 "/>
<path style="fill:#FFA000;" d="M21.29,12.06c0.09-0.08,0.19-0.16,0.28-0.24c0.09-0.09,0.19-0.18,0.28-0.27
	c2.07-2.12,1.94-5.24,0.02-7.17c-0.15-0.15-0.31-0.3-0.48-0.43c-0.31-0.28-0.66-0.52-1.01-0.73c1.3,2.21,1.2,5.64-1.57,7.34
	c-0.9,0.55-1.87,0.88-2.8,1.06c-2.22,0.45-4.18,0.11-4.18,0.11s0.04,0.27,0.06,0.71c0-0.37-0.01-0.65-0.03-0.65
	c1.06,1.08,2.57,1.52,4.09,1.72l0.12,0.02c0.25,0.03,0.49,0.06,0.74,0.08c-0.68,0.67-0.87,1.72-0.72,2.66
	c0.16,1.01,0.62,1.94,1.31,2.69l5.4,5.46c0.58-0.62,1.19-1.2,1.83-1.73c0.01,0,0.01-0.01,0.02-0.01c0.02-0.03,0.05-0.05,0.08-0.07
	c0.26-0.23,0.53-0.44,0.8-0.64c0.13-0.11,0.27-0.22,0.41-0.31l-8.11-8.2C19.09,13.32,20.29,12.84,21.29,12.06
	C21.29,12.06,21.29,12.06,21.29,12.06z M103.32,105.34h0.01l-0.02-0.02C103.31,105.32,103.31,105.32,103.32,105.34L103.32,105.34z
	 M108.41,104.73c-0.11-0.18-0.24-0.34-0.39-0.49L69.87,66.01l0,0c-0.33-0.33-0.78-0.51-1.24-0.51c-0.75,0-1.88,0.14-2.6,0.86
	c-0.29,0.29-0.48,0.64-0.63,0.99l37.83,39.57c0.58,0.58,3.22,1.08,3.98,1.08c0.46,0,0.92-0.12,1.34-0.34
	c-0.07,0.14-0.15,0.27-0.24,0.4C109.04,107.07,109.06,105.73,108.41,104.73L108.41,104.73z"/>
<path style="fill:#C67500;" d="M107.24,108.02c-0.76,0-1.52-0.29-2.1-0.87L67.03,68.98l-1.62-1.63c-0.06,0.15-0.11,0.3-0.15,0.45
	c-0.02,0.06-0.03,0.12-0.04,0.18c-0.09,0.38-0.14,0.74-0.14,1.03c-0.01,0.36,0.13,0.71,0.38,0.97l0.59,0.59l0.05,0.05l37.74,37.82
	h0.01c0.14,0.15,0.3,0.28,0.47,0.39h0.02c0,0,0,0,0,0.01c0.48,0.31,1.03,0.47,1.6,0.47s1.14-0.16,1.63-0.49
	c0.17-0.11,0.32-0.24,0.47-0.38c0.11-0.12,0.21-0.24,0.3-0.36c0.09-0.13,0.17-0.26,0.24-0.4
	C108.16,107.9,107.7,108.02,107.24,108.02L107.24,108.02z M16.22,16.27c-0.15-0.94,0.04-2.02,0.72-2.69
	c-0.25-0.02-0.61-0.01-0.86-0.04h-0.03l-0.09-0.02c-1.52-0.2-3.03-0.64-4.09-1.72c0.03,0,0.03,0.28,0.03,0.65
	c0.01,0.03,0.01,0.05,0.01,0.08c0,0.71-0.02,1.68-0.02,1.79c-0.03,0.48-0.07,0.96-0.15,1.44l0,0c-0.09,0.66-0.23,1.29-0.43,1.91
	c-0.31,0.91-0.93,1.67-1.73,2.23c-0.22,0.16-0.46,0.31-0.71,0.43c-0.26,0.14-0.52,0.25-0.79,0.34c-1.65,0.6-3.5,0.51-4.65-0.47
	c-0.17-0.15-0.35-0.24-0.51-0.4c0.4,0.75,0.9,1.4,1.5,2c1.37,1.37,3.35,1.83,5.14,1.23c0.1-0.03,0.2-0.06,0.3-0.11h0.01
	c0.1-0.04,0.2-0.08,0.3-0.13h0.01c0.09-0.04,0.19-0.09,0.29-0.16h0.01c0.09-0.05,0.19-0.1,0.28-0.17h0.01
	c0.09-0.05,0.18-0.12,0.27-0.19h0.01c0.09-0.06,0.18-0.13,0.27-0.22c0.09-0.07,0.17-0.15,0.26-0.23h0.01
	c0.08-0.09,0.16-0.17,0.25-0.26c0-0.01,0.01-0.01,0.01-0.01c0.08-0.09,0.16-0.19,0.23-0.29h0.01c0.08-0.1,0.15-0.2,0.23-0.3l0,0
	l0.21-0.33h0.01c0.2-0.33,0.37-0.67,0.51-1.04c0.06-0.17,0.13-0.35,0.19-0.53c0.02-0.06,0.03-0.12,0.05-0.19
	c0.04-0.12,0.07-0.24,0.1-0.37c0.05-0.23,0.08-0.45,0.13-0.63c-0.01-0.01,0-0.01,0-0.01c0-0.02,0-0.03,0.01-0.05
	c0.02-0.06,0.06-0.17,0.06-0.17l8.04,8.13c0.37-0.47,0.76-0.91,1.16-1.34L17.5,18.9c-0.88-0.97-1.16-1.85-1.29-2.62l0,0L16.22,16.27
	z M11.34,17.63L11.34,17.63c0.2-0.61,0.34-1.24,0.42-1.86l0,0c-0.09,0.62-0.23,1.24-0.43,1.86l0,0H11.34z M86.23,90.8l-1.4-1.41l0,0
	l1.41,1.41l0,0H86.23z"/>
</svg>
