<svg xmlns="http://www.w3.org/2000/svg" version="1.1" xmlns:xlink="http://www.w3.org/1999/xlink" xmlns:svgjs="http://svgjs.com/svgjs" width="128" height="128"><svg version="1.1" id="SvgjsSvg1000" xmlns="http://www.w3.org/2000/svg" xmlns:xlink="http://www.w3.org/1999/xlink" x="0px" y="0px" viewBox="0 0 128 128" enable-background="new 0 0 128 128" xml:space="preserve">
<path fill="#FFAED3" d="M118.56,52.77l-4.75,3.81c-7.74,3.47-16.43,14.95-12.79,22.67l10.23-3.13l0.09,0.06
	c0.22-0.31,0.46-0.61,0.68-0.92c0.3-0.41,0.59-0.81,0.87-1.22c0.23-0.32,0.46-0.65,0.69-0.97l0.99-1.47
	c1.32-1.97,2.54-4.02,3.65-6.12c0.21-0.41,0.42-0.81,0.62-1.22c1.27-2.59,2.27-5.16,2.92-7.69L118.56,52.77L118.56,52.77z
	 M73.74,66.52c-0.33,0-0.67,0.02-1.01,0.06c-3.36,0.43-6.12,3.11-6.63,6.46c-0.16,0.98-1.71,4.37-1.47,5.34l5.89-2.38
	c0.07-0.21,0.16-0.44,0.25-0.66L70.7,75.3l-0.63-0.63c-0.27-0.28-0.42-0.65-0.41-1.03c0.01-0.31,0.05-0.69,0.15-1.1
	c0-0.06,0.02-0.13,0.04-0.19c0.13-0.55,0.41-1.09,0.84-1.53c0.77-0.77,1.97-0.92,2.77-0.92c0.49,0,0.97,0.19,1.32,0.54l0.9,0.9
	c1.28-0.33,2.33-0.39,2.33-0.39c1.28,0.05,2.15-1.14,1.28-2.06C77.84,67.37,75.84,66.52,73.74,66.52L73.74,66.52z" data-darkreader-inline-fill="" style="--darkreader-inline-fill: #64002d;"></path>
<path fill="#FFFCFF" d="M73.77,50.46l-44.39,5.11l-10.17,0.97l-0.14,0.03c1.8,7.09,5.7,13.64,10.3,19.62l18.44,7.09l18.38-7.27
	c-0.22-0.93-0.28-1.93-0.12-2.97c0.51-3.35,3.27-6.04,6.63-6.46c0.34-0.04,0.68-0.06,1.01-0.06c2.1,0,4.11,0.85,5.56,2.37
	c0.87,0.92,0,2.11-1.28,2.06c0,0-1.05,0.06-2.33,0.39l4.75,4.77l8.81,2.67l14.83-2.69c4.52-6.53,8.13-13.21,9.74-19.52L73.77,50.46
	L73.77,50.46z" data-darkreader-inline-fill="" style="--darkreader-inline-fill: #350035;"></path>
<path fill="#FF6A8E" d="M122.74,38.27c-0.07-0.36-0.15-0.73-0.23-1.07l-11.46-4.29c-2.34,3.81,1.98,11.25,0.28,18.67
	c-0.06,0.26,1.71,4.59,2.47,5h7.96c0.06-0.25,0.13-0.48,0.18-0.73C123.54,49.02,123.68,43.18,122.74,38.27L122.74,38.27z
	 M104.06,76.09c-9.48,3.56-12.61,8.59-10.4,13.28l3.13,3.14h0.01c1.05-1.03,2.09-2.08,3.13-3.16c0.35-0.36,0.71-0.74,1.08-1.12
	c1.03-1.09,2.06-2.19,3.07-3.31c1.77-1.97,3.5-3.99,5.14-6.03c0.32-0.41,0.64-0.8,0.95-1.21c0.32-0.39,0.63-0.8,0.94-1.21
	c0.07-0.1,0.15-0.2,0.22-0.3l-0.09-0.06L104.06,76.09L104.06,76.09z M89.46,94.11c-0.38,0.43-2.36,1.59-2.74,1.99l4-0.74l-1.25-1.26
	H89.46z M67.75,79.16c0.84,1.01,2.1,0.34,2.21-1.06c0.01,0,0.14-0.94,0.53-2.09h-4.3C66.46,77.16,66.99,78.24,67.75,79.16z
	 M68.2,42.88l2.21-5.19c-0.05-0.17-0.11-0.33-0.16-0.5l-8.52-2.07c1.1,2.18,3.87,6.23,4.42,7.71C66.48,43.77,67.8,43.8,68.2,42.88
	L68.2,42.88z" data-darkreader-inline-fill="" style="--darkreader-inline-fill: #8c0022;"></path>
<path fill="#FFBAC8" d="M80.12,37.18l-4.01,2.14c-0.57,1.44,8.2,5.42,9.75,5.42c1.82,0,4.84-4.59,6.01-7.56l-5.48-2.69L80.12,37.18
	L80.12,37.18z M33.49,35.23l-3.75,0.44l-3.34,1.49c-1.45,5.35-4.6,10.72-1.85,15.61c0.23,0.42,4.44,2.81,4.83,2.81
	c0.53,0,4.75-0.7,4.84-1.34c0.39-2.82-0.02-4.84,1.27-7.37c0.89-1.74,1.99-1.75,3.17-2.85c0.45-0.45,3.26-1.9,3.75-2.29
	c1.09-0.86-2.03-3.64-0.79-4.54l-2.65-1.67L33.49,35.23L33.49,35.23z" data-darkreader-inline-fill="" style="--darkreader-inline-fill: #5c0013;"></path>
<path fill="#ABD3FF" d="M95.31,25.45c-2.91-2.06-12.15,0.49-14.56,3.87c-1.54,2.15,0.39,5.37-0.63,7.86h11.74
	c0.86-0.59,4.2-1.3,5.01-2.08c2.09-2.03,1.41-7.56-1.57-9.66l0,0V25.45z M47.23,26.05c-3.34-2.62-10.42-3.89-13.53-1.94
	c-1.26,0.79-3.35,1.41-4.33,2.5c-0.22,0.23-1.28,1.85-1.48,2.09c-0.19,0.25-1.33,2.69-1.5,2.94c-0.96,1.38,0.44,3.95,0,5.55h15.23
	l0.12-0.09c0.2-0.15,4.21-1.26,4.45-1.35C51.31,33.6,49.94,28.18,47.23,26.05L47.23,26.05L47.23,26.05z" data-darkreader-inline-fill="" style="--darkreader-inline-fill: #303436;"></path>
<path fill="#8FC3FF" d="M91.87,37.21l10.84,6.35l11.97-6.35c-2.61-11.91-3.35-15.53-17.55-17.86c-2.81-0.46-10.11,0.75-12.44,1.63
	c-8.94,4.83-13.13,13.98-14.05,16.2l4.35,6.83l5.13-6.83c1.02-2.49,2.31-4.9,3.85-7.05c2.41-3.38,7.01-5.37,9.92-3.31
	c2.98,2.1,2.59,6.29,0.5,8.32C93.59,35.93,92.73,36.61,91.87,37.21L91.87,37.21z M47.35,95.62c5.5,5.21,11.27,10.13,17.22,14.82
	c1.95,1.55,3.91,3.08,5.94,4.54c0,0,0.1-0.06,0.27-0.2c0.13-0.65,3.55-3.78,3.75-4c3.48-3.9,6.77-7.75,13.78-15.39l-30.69-8.04
	C57.62,87.34,41.84,90.41,47.35,95.62z M42.06,19.35c-4.36,0-8.81,0.86-12.86,3.11c-0.52,0.29-2.19,1.4-2.69,1.73
	c-0.01,0-0.01,0.01-0.02,0.01c-0.68,0.57-1.33,1.18-1.95,1.85c-0.43,0.46-0.84,0.93-1.24,1.43c-2.13,2.65-3.79,5.86-4.77,9.66
	l4.15,3.02l3.7-3c0.44-1.59,1.12-3.1,2.08-4.48c0.17-0.26,0.36-0.5,0.55-0.75c0.2-0.25,0.41-0.5,0.63-0.74
	c0.98-1.09,2.13-2.1,3.39-2.89c3.1-1.95,6.85-2.6,10.19,0.02c2.71,2.12,1.53,6.47-0.9,8.31c-0.2,0.15-0.39,0.3-0.6,0.45l-1.71,1.24
	l23.66-1.14C59.91,29.71,53.79,19.35,42.06,19.35L42.06,19.35L42.06,19.35z" data-darkreader-inline-fill="" style="--darkreader-inline-fill: #003776;"></path>
<path fill="#5D7DE3" d="M118.47,28.13c-0.74-1.02-1.57-1.98-2.46-2.87c-0.59-0.59-1.21-1.14-1.86-1.65
	c-1.17-0.93-2.43-1.75-3.75-2.44c-4.11-2.18-8.81-3.22-13.55-3.22c-0.63,0-1.24,0.02-1.85,0.06c-0.55,0.03-1.1,0.09-1.63,0.16
	c-1.06,0.14-2.1,0.34-3.14,0.61c-0.02,0.01-0.04,0.01-0.06,0.02c-0.45,0.12-0.9,0.25-1.32,0.38c-1.44,0.47-2.83,1.08-4.16,1.79
	c2.33-0.89,5.15-1.06,8-1.06c10.05,0,19.37,5.37,21.98,17.28h7.83C121.69,33.66,120.3,30.65,118.47,28.13L118.47,28.13z
	 M88.31,95.37c-7.01,7.64-13.58,14.04-17.06,17.94c-0.2,0.22-0.35,0.8-0.48,1.45c0.01,0,0.01-0.01,0.02-0.01
	c0.11-0.09,0.25-0.19,0.42-0.31c0.32-0.25,0.75-0.55,1.26-0.94c0.39-0.31,0.85-0.66,1.35-1.05c0.09-0.06,0.17-0.14,0.27-0.2
	c0.2-0.16,0.42-0.33,0.64-0.49c0.73-0.58,1.54-1.22,2.41-1.91c0.7-0.57,1.45-1.17,2.24-1.8c0.05-0.05,0.11-0.1,0.16-0.14
	c0.54-0.45,1.1-0.9,1.66-1.37c1.25-1.05,2.58-2.17,3.96-3.35c0.69-0.61,1.4-1.22,2.11-1.85c0.35-0.32,0.71-0.64,1.08-0.95
	c0.96-0.86,1.93-1.75,2.92-2.66l0.95-0.89l-1.19-1.49C91.03,95.37,88.31,95.37,88.31,95.37z M47.46,18.15
	c-0.51-0.06-1.02-0.12-1.56-0.15c-0.18-0.03-0.36-0.03-0.55-0.03c-0.29-0.01-0.58-0.02-0.86-0.02c-0.16-0.01-0.33-0.01-0.49-0.01
	c-1.51,0-3.06,0.13-4.6,0.38c-0.27,0.04-0.53,0.09-0.8,0.15c-1.27,0.25-2.53,0.58-3.75,1c-0.32,0.11-0.63,0.22-0.95,0.35
	c-0.43,0.16-0.85,0.34-1.27,0.52c-0.34,0.15-0.67,0.31-1,0.48c-0.04,0.02-0.09,0.03-0.12,0.05c-0.34,0.17-0.68,0.35-1.02,0.54
	c-0.37,0.2-0.74,0.43-1.1,0.65c-0.28,0.17-0.54,0.35-0.81,0.53l-0.22,0.16c-0.15,0.1-0.3,0.2-0.45,0.33c-0.15,0.1-0.3,0.2-0.45,0.32
	c-0.29,0.21-0.58,0.45-0.85,0.68c-0.03,0.02-0.05,0.04-0.09,0.07c0.5-0.33,1.01-0.64,1.54-0.93c4.05-2.25,8.61-3.34,12.97-3.34
	c11.74,0,18.9,9.78,22.67,17.26h6.56c-0.02-0.06-0.04-0.14-0.07-0.2C67.15,28.04,59.71,19.52,47.46,18.15L47.46,18.15z" data-darkreader-inline-fill="" style="--darkreader-inline-fill: #18348d;"></path>
<path fill="#FFC107" d="M111.35,92c-5.4-1.57-11-0.26-14.22,0.83l14.2,17.47c0.16,0.16,4.45,1.25,4.57,1.44
	c4.83,1.15,10.97,1.63,11.83-2.99C128.59,104.1,120.42,94.63,111.35,92z M111.51,116.1c-0.18-0.11-0.35-0.25-0.5-0.41l-0.05-2.81
	L92.64,97.29c-1.1,3.22-2.43,8.84-0.85,14.27c2.63,9.08,12.1,17.25,16.76,16.37c4.62-0.86,4.15-6.99,2.99-11.82L111.51,116.1
	L111.51,116.1z M20.32,11.3c2.95-1.81,3.06-5.47,1.67-7.83V3.45l0,0c-2.93-1.79-6.68-2.08-6.68-2.08L1.51,0H1.29
	C0.64,0.06,0.17,0.64,0.22,1.29L1.6,15.07c0,0,0.25,3.23,1.73,6.04c0,0,0.37,0.34,0.57,0.51c1.22,1.05,3.2,1.14,4.95,0.51
	c0.29-0.1,0.57-0.21,0.84-0.36c0.27-0.14,0.52-0.29,0.76-0.46c0.86-0.61,1.55-1.43,1.87-2.42c0.21-0.67,0.36-1.35,0.46-2.06
	c0.09-0.5,0.13-1.02,0.16-1.54c0.01-0.12,0.02-1.15,0.02-1.91c0-0.03,0-0.05-0.01-0.09c-0.02-0.47-0.06-0.76-0.06-0.76
	s2.09,0.36,4.46-0.12C18.32,12.23,19.36,11.88,20.32,11.3L20.32,11.3z" data-darkreader-inline-fill="" style="--darkreader-inline-fill: #967000;"></path>
<path fill="#FFA0B7" d="M70.49,76.01c-0.39,1.15-0.52,2.09-0.53,2.09c-0.11,1.4-1.37,2.07-2.21,1.06c-0.76-0.92-1.29-1.99-1.56-3.16
	H29.63l-0.26,0.19c3.23,4.22,6.84,8.16,10.31,11.81c2.49,2.6,5.03,5.14,7.66,7.61l0.14-0.14l40.82-0.09
	c0.38-0.42,0.77-0.84,1.15-1.27L70.74,75.35C70.65,75.57,70.57,75.8,70.49,76.01z M114.67,37.21L114.67,37.21H91.87
	c-3.9,2.67-8.03,3.41-9.86,3.41c-1.55,0-2.65-1.5-2.08-2.94l0.19-0.48h-9.48c-0.13,0.32-0.19,0.5-0.19,0.5s-0.06-0.18-0.19-0.5
	h-0.01c0.05,0.17,0.11,0.33,0.16,0.5l-2.21,5.19c-0.39,0.92-1.72,0.89-2.06-0.05c-0.71-1.93-1.53-3.82-2.45-5.65H41.62
	c-1.24,0.91-2.41,1.72-3.5,2.58l0,0c-0.49,0.39-0.97,0.8-1.41,1.25l0,0c-1.17,1.1-2.22,2.39-3.1,4.13c-1.29,2.53-2.06,5.28-2.45,8.1
	c-0.1,0.64-0.62,1-1.15,1c-0.39,0-0.78-0.18-1.01-0.6c-2.75-4.89-4.04-11.11-2.59-16.47h-7.72l-0.13-0.02
	c-1.3,5.13-1.38,11.34,0.35,18.71c0.05,0.25,0.12,0.48,0.18,0.73l0.14-0.03H30h16.87l26.86,0.02h40.07
	c0.07-0.27,0.13-0.52,0.19-0.78C115.71,48.38,115.79,42.22,114.67,37.21L114.67,37.21L114.67,37.21z M80.32,76l0.11,0.11
	l13.24,13.26c3.66-4.23,7.25-8.73,10.4-13.28L80.53,76H80.32z" data-darkreader-inline-fill="" style="--darkreader-inline-fill: #6c001a;"></path>
<polygon fill="#FFFCFF" points="71.41,76.01 70.74,75.35 70.49,76.01 " data-darkreader-inline-fill="" style="--darkreader-inline-fill: #ffcaff;"></polygon>
<path fill="#FFA000" d="M22.93,12.86c0.1-0.09,0.2-0.17,0.3-0.26c0.1-0.1,0.2-0.19,0.3-0.29c2.21-2.26,2.07-5.59,0.02-7.65
	c-0.16-0.16-0.33-0.32-0.51-0.46c-0.33-0.3-0.7-0.55-1.08-0.78c1.39,2.36,1.28,6.02-1.67,7.83c-0.96,0.59-1.99,0.94-2.99,1.13
	c-2.37,0.48-4.46,0.12-4.46,0.12s0.04,0.29,0.06,0.76c0-0.39-0.01-0.69-0.03-0.69c1.13,1.15,2.74,1.62,4.36,1.83l0.13,0.02
	c0.27,0.03,0.52,0.06,0.79,0.09c-0.73,0.71-0.93,1.83-0.77,2.84c0.17,1.08,0.66,2.07,1.4,2.87l5.76,5.82
	c0.62-0.66,1.27-1.28,1.95-1.85c0.01,0,0.01-0.01,0.02-0.01c0.02-0.03,0.05-0.05,0.09-0.07c0.28-0.25,0.57-0.47,0.85-0.68
	c0.14-0.12,0.29-0.23,0.44-0.33l-8.65-8.75C20.58,14.21,21.86,13.7,22.93,12.86L22.93,12.86z M110.43,112.36h0.01l-0.02-0.02
	C110.42,112.34,110.42,112.34,110.43,112.36L110.43,112.36z M115.86,111.71c-0.12-0.19-0.26-0.36-0.42-0.52L74.75,70.41l0,0
	c-0.35-0.35-0.83-0.54-1.32-0.54c-0.8,0-2.01,0.15-2.77,0.92c-0.31,0.31-0.51,0.68-0.67,1.06l40.35,42.21
	c0.62,0.62,3.43,1.15,4.25,1.15c0.49,0,0.98-0.13,1.43-0.36c-0.07,0.15-0.16,0.29-0.26,0.43
	C116.53,114.21,116.55,112.78,115.86,111.71L115.86,111.71z" data-darkreader-inline-fill="" style="--darkreader-inline-fill: #cc8000;"></path>
<path fill="#C67500" d="M114.61,115.22c-0.81,0-1.62-0.31-2.24-0.93L71.72,73.58l-1.73-1.74c-0.06,0.16-0.12,0.32-0.16,0.48
	c-0.02,0.06-0.03,0.13-0.04,0.19c-0.1,0.41-0.15,0.79-0.15,1.1c-0.01,0.38,0.14,0.76,0.41,1.03l0.63,0.63l0.05,0.05l40.26,40.34
	h0.01c0.15,0.16,0.32,0.3,0.5,0.42h0.02c0,0,0,0,0,0.01c0.51,0.33,1.1,0.5,1.71,0.5c0.61,0,1.22-0.17,1.74-0.52
	c0.18-0.12,0.34-0.26,0.5-0.41c0.12-0.13,0.22-0.26,0.32-0.38c0.1-0.14,0.18-0.28,0.26-0.43
	C115.59,115.09,115.1,115.22,114.61,115.22L114.61,115.22z M17.52,17.35c-0.16-1,0.04-2.15,0.77-2.87
	c-0.27-0.02-0.65-0.01-0.92-0.04h-0.03l-0.1-0.02c-1.62-0.21-3.23-0.68-4.36-1.83c0.03,0,0.03,0.3,0.03,0.69
	c0.01,0.03,0.01,0.05,0.01,0.09c0,0.76-0.02,1.79-0.02,1.91c-0.03,0.51-0.07,1.02-0.16,1.54l0,0c-0.1,0.7-0.25,1.38-0.46,2.04
	c-0.33,0.97-0.99,1.78-1.85,2.38c-0.23,0.17-0.49,0.33-0.76,0.46c-0.28,0.15-0.55,0.27-0.84,0.36c-1.76,0.64-3.73,0.54-4.96-0.5
	c-0.18-0.16-0.37-0.26-0.54-0.43c0.43,0.8,0.96,1.49,1.6,2.13c1.46,1.46,3.57,1.95,5.48,1.31c0.11-0.03,0.21-0.06,0.32-0.12h0.01
	c0.11-0.04,0.21-0.09,0.32-0.14h0.01c0.1-0.04,0.2-0.1,0.31-0.17h0.01c0.1-0.05,0.2-0.11,0.3-0.18h0.01c0.1-0.05,0.19-0.13,0.29-0.2
	h0.01c0.1-0.06,0.19-0.14,0.29-0.23c0.1-0.07,0.18-0.16,0.28-0.25h0.01c0.09-0.1,0.17-0.18,0.27-0.28c0-0.01,0.01-0.01,0.01-0.01
	c0.09-0.1,0.17-0.2,0.25-0.31h0.01c0.09-0.11,0.16-0.21,0.25-0.32l0,0l0.22-0.35h0.01c0.21-0.35,0.39-0.71,0.54-1.11
	c0.06-0.18,0.14-0.37,0.2-0.57c0.02-0.06,0.03-0.13,0.05-0.2c0.04-0.13,0.07-0.26,0.11-0.39c0.05-0.25,0.09-0.48,0.14-0.67
	c-0.01-0.01,0-0.01,0-0.01c0-0.02,0-0.03,0.01-0.05c0.02-0.06,0.06-0.18,0.06-0.18l8.58,8.67c0.39-0.5,0.81-0.97,1.24-1.43
	l-5.64-5.9c-0.94-1.03-1.24-1.97-1.38-2.79l0,0L17.52,17.35z M12.32,18.81L12.32,18.81c0.21-0.65,0.36-1.32,0.45-1.98l0,0
	c-0.1,0.66-0.25,1.32-0.46,1.98l0,0H12.32z M92.2,96.85l-1.49-1.5l0,0l1.5,1.5l0,0H92.2z" data-darkreader-inline-fill="" style="--darkreader-inline-fill: #9e5e00;"></path>
</svg><style>@media (prefers-color-scheme: light) { :root { filter: none; } }
</style></svg>