<svg xmlns="http://www.w3.org/2000/svg" xml:space="preserve" viewBox="0 0 128 128">
  <path fill="#FFAED3" d="M114.84 65.39a63.85 63.85 0 0 1-3.42 5.74l-.93 1.38-.65.91-.82 1.14-.64.86-.08-.06-9.59 2.93c-3.41-7.23 4.73-18 11.99-21.25l4.45-3.57 3.01 3.57a38.15 38.15 0 0 1-2.74 7.21l-.58 1.14zM69.31 73.03c-.01.36.13.71.38.97l.59.59.05.05-.23.62-5.52 2.23c-.22-.91 1.23-4.09 1.38-5.01a7.29 7.29 0 0 1 7.17-6.12c1.97 0 3.85.8 5.21 2.22.82.86 0 1.98-1.2 1.93 0 0-.98.06-2.18.37l-.84-.84a1.76 1.76 0 0 0-1.24-.51c-.75 0-1.88.14-2.6.86a2.95 2.95 0 0 0-.83 1.61c-.09.38-.13.74-.14 1.03z"/>
  <path fill="#FFFCFF" d="M73.16 51.31 31.54 56.1l-9.53.91-.13.03c1.69 6.65 5.34 12.79 9.66 18.39l17.29 6.65 17.23-6.82a7.29 7.29 0 0 1 7.06-8.9c1.97 0 3.85.8 5.21 2.22.82.86 0 1.98-1.2 1.93 0 0-.98.06-2.18.37l4.45 4.47 8.26 2.5 13.9-2.52c4.24-6.12 7.62-12.38 9.13-18.3l-37.53-5.72z"/>
  <path fill="#FF784A" d="M119.07 39.88c.88 4.6.75 10.08-.75 16.49l-.17.68h-7.46c-.72-.39-2.38-4.45-2.32-4.69 1.6-6.95-2.45-13.93-.26-17.5l10.74 4.02.22 1z"/>
  <path fill="#E9317C" d="m108.37 75.42-.21.28-.88 1.13-.89 1.13a141.2 141.2 0 0 1-7.7 8.75l-1.01 1.05c-.97 1.01-1.95 1.99-2.93 2.96h-.01l-2.93-2.94c-2.07-4.4.86-9.11 9.75-12.45l6.73.03.08.06z"/>
  <path fill="#F151A4" d="m87.88 92.23 1.17 1.18-3.75.69c.36-.38 2.21-1.47 2.58-1.87z"/>
  <path fill="#CF215B" d="M66.06 75.26h4.03c-.37 1.08-.49 1.96-.5 1.96-.1 1.31-1.28 1.94-2.07.99a7.18 7.18 0 0 1-1.46-2.95z"/>
  <path fill="#FF784A" d="m69.86 38.86.15.47-2.07 4.87c-.37.86-1.61.83-1.93-.05-.51-1.39-3.11-5.19-4.14-7.23l7.99 1.94z"/>
  <path fill="#FFBD90" d="M90.13 38.86c-1.09 2.79-3.92 7.09-5.63 7.09-1.45 0-9.67-3.73-9.14-5.08l3.76-2.01 5.87-2.52 5.14 2.52zM40.25 45.26c-1.1 1.03-2.14 1.04-2.97 2.67-1.21 2.37-.82 4.27-1.19 6.91-.09.6-4.04 1.26-4.54 1.26-.37 0-4.31-2.24-4.53-2.63-2.58-4.58.37-9.61 1.73-14.63l3.13-1.4 3.52-.41 5.15.25 2.48 1.57c-1.16.85 1.76 3.45.74 4.26-.46.37-3.1 1.73-3.52 2.15z"/>
  <path fill="#FC6345" d="M79.71 31.49c2.26-3.17 10.92-5.56 13.65-3.63v-.01c2.79 1.97 3.43 7.16 1.47 9.06-.76.73-3.89 1.4-4.7 1.95H79.12c.96-2.34-.85-5.35.59-7.37zM28.74 33.66c.16-.24 1.23-2.53 1.41-2.76.19-.23 1.18-1.74 1.39-1.96.92-1.02 2.88-1.6 4.06-2.34 2.91-1.83 9.55-.64 12.68 1.82 2.54 2 3.83 7.08-.98 9.09-.22.09-3.98 1.13-4.17 1.27l-.11.08H28.74c.41-1.5-.9-3.91 0-5.2z"/>
  <path fill="#FA2B07" d="m111.51 38.88-11.22 5.95-10.16-5.95c.81-.56 1.61-1.2 2.37-1.93 1.96-1.9 2.32-5.83-.47-7.8-2.73-1.93-7.04-.07-9.3 3.1a33.29 33.29 0 0 0-3.61 6.61l-4.81 6.4-4.08-6.4c.86-2.08 4.79-10.66 13.17-15.19 2.18-.83 9.03-1.96 11.66-1.53 13.31 2.18 14 5.57 16.45 16.74z"/>
  <path fill="#C40065" d="m58.02 85.88 28.77 7.54c-6.57 7.16-9.66 10.77-12.92 14.43-.19.21-3.4 3.14-3.52 3.75l-.25.19c-1.9-1.37-3.74-2.81-5.57-4.26-5.57-4.39-10.98-9.01-16.14-13.89s9.63-7.76 9.63-7.76z"/>
  <path fill="#FA2B07" d="m63.7 38.86-22.18 1.07 1.6-1.16.56-.42c2.27-1.72 3.38-5.8.84-7.79-3.13-2.46-6.64-1.85-9.55-.02a15.31 15.31 0 0 0-3.18 2.71c-.21.22-.4.46-.59.69a13.62 13.62 0 0 0-2.47 4.9l-3.47 2.81-3.89-2.83A23.69 23.69 0 0 1 27 28.42c.58-.62 1.19-1.2 1.83-1.73l.02-.01c.47-.31 2.03-1.35 2.52-1.62a24.61 24.61 0 0 1 12.06-2.92c11 0 16.74 9.71 20.27 16.72z"/>
  <path fill="#D93000" d="M90.9 22.67c-2.67 0-5.32.16-7.5.99a24.01 24.01 0 0 1 5.14-2.04l.06-.02a24.6 24.6 0 0 1 6.2-.78c4.44 0 8.85.98 12.7 3.02a22.6 22.6 0 0 1 5.26 3.84c.84.83 1.62 1.73 2.31 2.69a23.2 23.2 0 0 1 3.78 8.5h-7.34c-2.45-11.17-11.19-16.2-20.61-16.2z"/>
  <path fill="#AC0046" d="m86.83 98.13-1.01.89-1.98 1.73a362.52 362.52 0 0 1-3.71 3.14l-1.56 1.28-.15.13-2.1 1.69-2.26 1.79-.6.46-.25.19-1.27.98-1.18.88-.39.29-.02.01c.12-.61.26-1.15.45-1.36 3.26-3.66 9.42-9.66 15.99-16.82h2.55l1.12 1.4-.89.83-2.74 2.49z"/>
  <path fill="#D93000" d="M48.5 21.02c11.48 1.28 18.46 9.27 21.29 17.64l.07.19h-6.15c-3.53-7.01-10.24-16.18-21.25-16.18a25.23 25.23 0 0 0-13.6 4l.08-.07a16 16 0 0 1 1.64-1.25l.21-.15.76-.5a21.42 21.42 0 0 1 1.99-1.12l.11-.05a16.2 16.2 0 0 1 2.13-.94 25.38 25.38 0 0 1 4.41-1.27c.25-.06.5-.1.75-.14a26.3 26.3 0 0 1 7.56-.16z"/>
  <path fill="#FFC107" d="M108.39 90.25c-5.06-1.47-10.31-.24-13.33.78l13.31 16.38c.15.15 4.17 1.17 4.28 1.35 4.53 1.08 10.28 1.53 11.09-2.8.82-4.37-6.84-13.24-15.35-15.71zm.15 22.59c-.17-.1-.33-.23-.47-.38l-.05-2.63-17.17-14.62c-1.03 3.02-2.28 8.29-.8 13.38 2.47 8.51 11.34 16.17 15.71 15.35 4.33-.81 3.89-6.55 2.8-11.08l-.02-.02zM23.05 14.59c2.77-1.7 2.87-5.13 1.57-7.34v-.02c-2.75-1.68-6.26-1.95-6.26-1.95L5.42 4h-.21c-.61.06-1.05.6-1 1.21L5.5 18.13s.23 3.03 1.62 5.66l.53.48c1.14.98 3 1.07 4.64.48a5.58 5.58 0 0 0 1.5-.77 4.5 4.5 0 0 0 1.75-2.27 13.77 13.77 0 0 0 .58-3.37l.02-1.79-.01-.08c-.02-.44-.06-.71-.06-.71s1.96.34 4.18-.11c.93-.18 1.9-.51 2.8-1.06z"/>
  <path fill="#FFA46B" d="M111.51 38.88c1.05 4.7.97 10.48-.63 17.43l-.18.73H73.13l-25.18-.02H31.99v-2.18l.14.01c.5 0 .99-.34 1.08-.94a23.93 23.93 0 0 1 2.3-7.59 13.63 13.63 0 0 1 2.91-3.87c.41-.42.86-.8 1.32-1.17 1.02-.81 2.12-1.57 3.28-2.42h20.69a50.78 50.78 0 0 1 2.3 5.3c.32.88 1.56.91 1.93.05l2.07-4.87-.15-.47h.01l.18.47.18-.47h8.89l-.18.45a2.04 2.04 0 0 0 1.95 2.76c1.71 0 5.58-.7 9.24-3.2h21.38z"/>
  <path fill="#F151A4" d="m79.5 75.25 22.06.08a148.2 148.2 0 0 1-9.75 12.45L79.4 75.35l-.1-.1h.2zM70.32 74.64l17.55 17.59-1.08 1.19-38.27.08-.13.13a185.68 185.68 0 0 1-7.18-7.13 136.35 136.35 0 0 1-9.67-11.07l.24-.18h34.28c.25 1.09.75 2.1 1.46 2.96.79.95 1.97.32 2.07-.99.01 0 .13-.88.5-1.96l.23-.62z"/>
  <path fill="#FFA46B" d="M31.99 54.84v2.18h-9.97l-.13.03-.17-.68c-1.62-6.91-1.55-12.73-.33-17.54l.12.02h7.24c-1.36 5.02-.15 10.86 2.43 15.44.19.34.49.51.81.55z"/>
  <path fill="#FFFCFF" d="m70.95 75.26-.63-.62-.23.62z"/>
  <path fill="#FFA000" d="M107.44 110.92 69.61 71.35c.15-.35.34-.7.63-.99.72-.72 1.85-.86 2.6-.86.46 0 .91.18 1.24.51l38.15 38.23a2.92 2.92 0 0 1 .53 3.42 2.9 2.9 0 0 1-1.34.34c-.76 0-3.4-.5-3.98-1.08zM16.04 15.73s1.96.34 4.18-.11c.93-.18 1.9-.51 2.8-1.06 2.77-1.7 2.87-5.13 1.57-7.34.35.21.7.45 1.01.73a5.04 5.04 0 0 1 .46 7.6l-.28.27-.28.24c-1 .78-2.2 1.26-3.46 1.4l8.11 8.2a11.8 11.8 0 0 0-1.29 1.02l-.02.01c-.64.53-1.25 1.11-1.83 1.73l-5.4-5.46a5.17 5.17 0 0 1-1.31-2.69c-.15-.94.04-1.99.72-2.66l-.74-.08-.12-.02c-1.52-.2-3.03-.64-4.09-1.72.02 0 .03.28.03.65-.02-.44-.06-.71-.06-.71z"/>
  <path fill="#C67500" d="M111.45 112.02c-.76 0-1.52-.29-2.1-.87L71.24 72.98l-1.62-1.63-.15.45-.04.18c-.09.38-.14.74-.14 1.03-.01.36.13.71.38.97l.59.59.05.05 37.74 37.82h.01c.14.15.3.28.47.39h.02v.01a2.93 2.93 0 0 0 3.23-.02c.17-.11.32-.24.47-.38l.3-.36c.09-.13.17-.26.24-.4a2.9 2.9 0 0 1-1.34.34zM20.43 20.27c-.15-.94.04-2.02.72-2.69-.25-.02-.61-.01-.86-.04h-.03l-.09-.02c-1.52-.2-3.03-.64-4.09-1.72.03 0 .03.28.03.65l.01.08-.02 1.79c-.03.48-.07.96-.15 1.44-.09.66-.23 1.29-.43 1.91a4.53 4.53 0 0 1-1.73 2.23c-.22.16-.46.31-.71.43-.26.14-.52.25-.79.34-1.65.6-3.5.51-4.65-.47-.17-.15-.35-.24-.51-.4.4.75.9 1.4 1.5 2a5 5 0 0 0 5.44 1.12h.01l.3-.13h.01c.09-.04.19-.09.29-.16h.01c.09-.05.19-.1.28-.17h.01c.09-.05.18-.12.27-.19h.01c.09-.06.18-.13.27-.22l.26-.23h.01l.25-.26.01-.01.23-.29h.01l.23-.3.21-.33h.01c.2-.33.37-.67.51-1.04l.19-.53.05-.19a4 4 0 0 0 .1-.37c.05-.23.08-.45.13-.63v-.01l.01-.05.06-.17 8.04 8.13c.37-.47.76-.91 1.16-1.34l-5.29-5.53a4.9 4.9 0 0 1-1.29-2.62l.01-.01zm-4.88 1.36a11.35 11.35 0 0 1-.01 0h.01zM90.44 94.8l-1.4-1.41 1.41 1.41h-.01z"/>
</svg>
