<?xml version="1.0" encoding="utf-8"?>
<!-- Generator: Adobe Illustrator 27.7.0, SVG Export Plug-In . SVG Version: 6.00 Build 0)  -->
<svg version="1.1" id="Layer_4" xmlns="http://www.w3.org/2000/svg" xmlns:xlink="http://www.w3.org/1999/xlink" x="0px" y="0px"
	 viewBox="0 0 128 128" enable-background="new 0 0 128 128" xml:space="preserve">
<path fill="#FFAED3" d="M114.84,65.39c-1.04,1.97-2.18,3.89-3.42,5.74l-0.93,1.38c-0.22,0.3-0.43,0.61-0.65,0.91
	c-0.27,0.38-0.54,0.76-0.82,1.14c-0.21,0.29-0.43,0.57-0.64,0.86l-0.08-0.06l-9.59,2.93c-3.41-7.23,4.73-18,11.99-21.25l4.45-3.57
	l3.01,3.57c-0.61,2.37-1.55,4.78-2.74,7.21C115.23,64.63,115.04,65.01,114.84,65.39z"/>
<path fill="#FFAED3" d="M69.31,73.03c-0.01,0.36,0.13,0.71,0.38,0.97l0.59,0.59l0.05,0.05c-0.08,0.21-0.16,0.42-0.23,0.62
	l-5.52,2.23c-0.22-0.91,1.23-4.09,1.38-5.01c0.48-3.14,3.07-5.66,6.22-6.06c0.32-0.04,0.64-0.06,0.95-0.06
	c1.97,0,3.85,0.8,5.21,2.22c0.82,0.86,0,1.98-1.2,1.93c0,0-0.98,0.06-2.18,0.37l-0.84-0.84c-0.33-0.33-0.78-0.51-1.24-0.51
	c-0.75,0-1.88,0.14-2.6,0.86c-0.41,0.41-0.67,0.91-0.79,1.43c-0.02,0.06-0.04,0.12-0.04,0.18C69.36,72.38,69.32,72.74,69.31,73.03z"/>
<path fill="#FFFCFF" d="M73.16,51.31L31.54,56.1l-9.53,0.91l-0.13,0.03c1.69,6.65,5.34,12.79,9.66,18.39l17.29,6.65l17.23-6.82
	c-0.21-0.87-0.26-1.81-0.11-2.78c0.48-3.14,3.07-5.66,6.22-6.06c0.32-0.04,0.64-0.06,0.95-0.06c1.97,0,3.85,0.8,5.21,2.22
	c0.82,0.86,0,1.98-1.2,1.93c0,0-0.98,0.06-2.18,0.37l4.45,4.47l8.26,2.5l13.9-2.52c4.24-6.12,7.62-12.38,9.13-18.3L73.16,51.31
	L73.16,51.31z"/>
<path fill="#FF784A" d="M119.07,39.88c0.88,4.6,0.75,10.08-0.75,16.49c-0.05,0.23-0.11,0.45-0.17,0.68h-7.46
	c-0.72-0.39-2.38-4.45-2.32-4.69c1.6-6.95-2.45-13.93-0.26-17.5l10.74,4.02C118.93,39.2,119,39.54,119.07,39.88z"/>
<path fill="#E9317C" d="M108.37,75.42c-0.07,0.09-0.14,0.19-0.21,0.28c-0.29,0.38-0.58,0.76-0.88,1.13
	c-0.29,0.38-0.59,0.75-0.89,1.13c-1.54,1.91-3.16,3.8-4.82,5.65c-0.95,1.05-1.91,2.08-2.88,3.1c-0.34,0.36-0.68,0.71-1.01,1.05
	c-0.97,1.01-1.95,1.99-2.93,2.96h-0.01l-2.93-2.94c-2.07-4.4,0.86-9.11,9.75-12.45l6.73,0.03L108.37,75.42z"/>
<path fill="#F151A4" d="M87.88,92.23l1.17,1.18L85.3,94.1C85.66,93.72,87.51,92.63,87.88,92.23L87.88,92.23z"/>
<path fill="#CF215B" d="M66.06,75.26h4.03c-0.37,1.08-0.49,1.96-0.5,1.96c-0.1,1.31-1.28,1.94-2.07,0.99
	C66.81,77.35,66.31,76.34,66.06,75.26z"/>
<path fill="#FF784A" d="M69.86,38.86c0.05,0.16,0.1,0.31,0.15,0.47l-2.07,4.87c-0.37,0.86-1.61,0.83-1.93-0.05
	c-0.51-1.39-3.11-5.19-4.14-7.23L69.86,38.86z"/>
<path fill="#FFBD90" d="M90.13,38.86c-1.09,2.79-3.92,7.09-5.63,7.09c-1.45,0-9.67-3.73-9.14-5.08l3.76-2.01l5.87-2.52
	L90.13,38.86z"/>
<path fill="#FFBD90" d="M40.25,45.26c-1.1,1.03-2.14,1.04-2.97,2.67c-1.21,2.37-0.82,4.27-1.19,6.91
	c-0.09,0.6-4.04,1.26-4.54,1.26c-0.37,0-4.31-2.24-4.53-2.63c-2.58-4.58,0.37-9.61,1.73-14.63l3.13-1.4l3.52-0.41l5.15,0.25
	l2.48,1.57c-1.16,0.85,1.76,3.45,0.74,4.26C43.31,43.48,40.67,44.84,40.25,45.26z"/>
<path fill="#FC6345" d="M79.71,31.49c2.26-3.17,10.92-5.56,13.65-3.63v-0.01c2.79,1.97,3.43,7.16,1.47,9.06
	c-0.76,0.73-3.89,1.4-4.7,1.95H79.12C80.08,36.52,78.27,33.51,79.71,31.49z"/>
<path fill="#FC6345" d="M28.74,33.66c0.16-0.24,1.23-2.53,1.41-2.76c0.19-0.23,1.18-1.74,1.39-1.96c0.92-1.02,2.88-1.6,4.06-2.34
	c2.91-1.83,9.55-0.64,12.68,1.82c2.54,2,3.83,7.08-0.98,9.09c-0.22,0.09-3.98,1.13-4.17,1.27l-0.11,0.08H28.74
	C29.15,37.36,27.84,34.95,28.74,33.66z"/>
<path fill="#FA2B07" d="M111.51,38.88l-11.22,5.95l-10.16-5.95c0.81-0.56,1.61-1.2,2.37-1.93c1.96-1.9,2.32-5.83-0.47-7.8
	c-2.73-1.93-7.04-0.07-9.3,3.1c-1.44,2.02-2.65,4.28-3.61,6.61l-4.81,6.4l-4.08-6.4c0.86-2.08,4.79-10.66,13.17-15.19
	c2.18-0.83,9.03-1.96,11.66-1.53C108.37,24.32,109.06,27.71,111.51,38.88z"/>
<path fill="#C40065" d="M58.02,85.88l28.77,7.54c-6.57,7.16-9.66,10.77-12.92,14.43c-0.19,0.21-3.4,3.14-3.52,3.75
	c-0.16,0.13-0.25,0.19-0.25,0.19c-1.9-1.37-3.74-2.81-5.57-4.26c-5.57-4.39-10.98-9.01-16.14-13.89S58.02,85.88,58.02,85.88z"/>
<path fill="#FA2B07" d="M63.7,38.86l-22.18,1.07l1.6-1.16c0.19-0.14,0.37-0.28,0.56-0.42c2.27-1.72,3.38-5.8,0.84-7.79
	c-3.13-2.46-6.64-1.85-9.55-0.02c-1.18,0.74-2.26,1.69-3.18,2.71c-0.21,0.22-0.4,0.46-0.59,0.69c-0.18,0.23-0.36,0.46-0.52,0.7
	c-0.9,1.29-1.54,2.71-1.95,4.2l-3.47,2.81l-3.89-2.83c0.92-3.57,2.47-6.58,4.47-9.06c0.37-0.47,0.76-0.91,1.16-1.34
	c0.58-0.62,1.19-1.2,1.83-1.73c0.01,0,0.01-0.01,0.02-0.01c0.47-0.31,2.03-1.35,2.52-1.62c3.8-2.11,7.97-2.92,12.06-2.92
	C54.43,22.14,60.17,31.85,63.7,38.86z"/>
<path fill="#D93000" d="M90.9,22.67c-2.67,0-5.32,0.16-7.5,0.99c1.25-0.67,2.55-1.24,3.9-1.68c0.4-0.13,0.82-0.25,1.24-0.36
	c0.02-0.01,0.04-0.01,0.06-0.02c0.97-0.25,1.95-0.44,2.94-0.57c0.5-0.07,1.01-0.12,1.53-0.15c0.57-0.04,1.14-0.06,1.73-0.06
	c4.44,0,8.85,0.98,12.7,3.02c1.24,0.65,2.42,1.42,3.52,2.29c0.61,0.48,1.19,1,1.74,1.55c0.84,0.83,1.62,1.73,2.31,2.69
	c1.71,2.36,3.02,5.19,3.78,8.5h-7.34C109.06,27.7,100.32,22.67,90.9,22.67z"/>
<path fill="#AC0046" d="M86.83,98.13c-0.34,0.29-0.68,0.59-1.01,0.89c-0.67,0.59-1.33,1.16-1.98,1.73
	c-1.29,1.11-2.54,2.16-3.71,3.14c-0.53,0.44-1.05,0.86-1.56,1.28c-0.05,0.04-0.1,0.08-0.15,0.13c-0.74,0.59-1.44,1.16-2.1,1.69
	c-0.82,0.65-1.58,1.25-2.26,1.79c-0.21,0.15-0.41,0.31-0.6,0.46c-0.09,0.06-0.17,0.13-0.25,0.19c-0.47,0.36-0.9,0.69-1.27,0.98
	c-0.48,0.36-0.88,0.65-1.18,0.88c-0.16,0.11-0.29,0.21-0.39,0.29c-0.01,0-0.01,0.01-0.02,0.01c0.12-0.61,0.26-1.15,0.45-1.36
	c3.26-3.66,9.42-9.66,15.99-16.82h2.55l1.12,1.4l-0.89,0.83C88.64,96.49,87.73,97.32,86.83,98.13z"/>
<path fill="#D93000" d="M48.5,21.02c11.48,1.28,18.46,9.27,21.29,17.64c0.03,0.06,0.05,0.13,0.07,0.19h-6.15
	c-3.53-7.01-10.24-16.18-21.25-16.18c-4.09,0-8.36,1.02-12.16,3.13c-0.49,0.27-0.97,0.56-1.44,0.87c0.03-0.03,0.05-0.05,0.08-0.07
	c0.26-0.22,0.53-0.44,0.8-0.64c0.14-0.11,0.28-0.21,0.42-0.3c0.14-0.12,0.28-0.22,0.42-0.31l0.21-0.15
	c0.25-0.17,0.5-0.34,0.76-0.5c0.34-0.21,0.68-0.42,1.03-0.61c0.32-0.18,0.64-0.35,0.96-0.51c0.03-0.02,0.07-0.03,0.11-0.05
	c0.31-0.16,0.62-0.31,0.94-0.45c0.39-0.17,0.79-0.34,1.19-0.49c0.3-0.12,0.59-0.23,0.89-0.33c1.15-0.4,2.33-0.71,3.52-0.94
	c0.25-0.06,0.5-0.1,0.75-0.14c1.44-0.24,2.89-0.36,4.31-0.36c0.15,0,0.31,0,0.46,0.01c0.27,0,0.54,0.01,0.81,0.02
	c0.18,0,0.35,0,0.52,0.03C47.54,20.91,48.02,20.96,48.5,21.02z"/>
<path fill="#FFC107" d="M108.39,90.25c-5.06-1.47-10.31-0.24-13.33,0.78l13.31,16.38c0.15,0.15,4.17,1.17,4.28,1.35
	c4.53,1.08,10.28,1.53,11.09-2.8C124.56,101.59,116.9,92.72,108.39,90.25z M108.54,112.84c-0.17-0.1-0.33-0.23-0.47-0.38l-0.05-2.63
	L90.85,95.21c-1.03,3.02-2.28,8.29-0.8,13.38c2.47,8.51,11.34,16.17,15.71,15.35c4.33-0.81,3.89-6.55,2.8-11.08L108.54,112.84
	L108.54,112.84z M23.05,14.59c2.77-1.7,2.87-5.13,1.57-7.34V7.23l0,0c-2.75-1.68-6.26-1.95-6.26-1.95L5.42,4H5.21
	c-0.61,0.06-1.05,0.6-1,1.21L5.5,18.13c0,0,0.23,3.03,1.62,5.66c0,0,0.35,0.32,0.53,0.48c1.14,0.98,3,1.07,4.64,0.48
	c0.27-0.09,0.53-0.2,0.79-0.34c0.25-0.13,0.49-0.27,0.71-0.43c0.81-0.57,1.45-1.34,1.75-2.27c0.2-0.63,0.34-1.27,0.43-1.93
	c0.08-0.47,0.12-0.96,0.15-1.44c0.01-0.11,0.02-1.08,0.02-1.79c0-0.03,0-0.05-0.01-0.08c-0.02-0.44-0.06-0.71-0.06-0.71
	s1.96,0.34,4.18-0.11C21.18,15.47,22.15,15.14,23.05,14.59L23.05,14.59z"/>
<path fill="#FFA46B" d="M111.51,38.88c1.05,4.7,0.97,10.48-0.63,17.43c-0.06,0.24-0.11,0.48-0.18,0.73H73.13l-25.18-0.02H32.13
	h-0.14v-2.18c0.05,0.01,0.09,0.01,0.14,0.01c0.5,0,0.99-0.34,1.08-0.94c0.37-2.64,1.09-5.22,2.3-7.59
	c0.83-1.63,1.81-2.84,2.91-3.87c0.41-0.42,0.86-0.8,1.32-1.17c1.02-0.81,2.12-1.57,3.28-2.42h20.69c0.87,1.72,1.63,3.49,2.3,5.3
	c0.32,0.88,1.56,0.91,1.93,0.05l2.07-4.87c-0.05-0.16-0.1-0.31-0.15-0.47h0.01c0.12,0.3,0.18,0.47,0.18,0.47s0.06-0.17,0.18-0.47
	h8.89l-0.18,0.45c-0.53,1.35,0.5,2.76,1.95,2.76c1.71,0,5.58-0.7,9.24-3.2H111.51z"/>
<path fill="#F151A4" d="M79.5,75.25l22.06,0.08c-2.95,4.27-6.32,8.48-9.75,12.45L79.4,75.35l-0.1-0.1H79.5z"/>
<path fill="#F151A4" d="M70.32,74.64l17.55,17.59c-0.36,0.4-0.72,0.8-1.08,1.19L48.52,93.5l-0.13,0.13
	c-2.46-2.31-4.85-4.69-7.18-7.13c-3.26-3.42-6.64-7.11-9.67-11.07l0.24-0.18h34.28c0.25,1.09,0.75,2.1,1.46,2.96
	c0.79,0.95,1.97,0.32,2.07-0.99c0.01,0,0.13-0.88,0.5-1.96C70.16,75.06,70.24,74.85,70.32,74.64z"/>
<path fill="#FFA46B" d="M31.99,54.84v2.18h-9.97l-0.13,0.03c-0.06-0.23-0.12-0.45-0.17-0.68c-1.62-6.91-1.55-12.73-0.33-17.54
	l0.12,0.02h7.24c-1.36,5.02-0.15,10.86,2.43,15.44C31.37,54.63,31.67,54.8,31.99,54.84z"/>
<polygon fill="#FFFCFF" points="70.95,75.26 70.32,74.64 70.09,75.26 "/>
<path fill="#FFA000" d="M107.44,110.92L69.61,71.35c0.15-0.35,0.34-0.7,0.63-0.99c0.72-0.72,1.85-0.86,2.6-0.86
	c0.46,0,0.91,0.18,1.24,0.51l38.15,38.23c0.15,0.15,0.28,0.31,0.39,0.49c0.57,0.87,0.62,2,0.14,2.93
	c-0.42,0.22-0.88,0.34-1.34,0.34C110.66,112,108.02,111.5,107.44,110.92z"/>
<path fill="#FFA000" d="M16.04,15.73c0,0,1.96,0.34,4.18-0.11c0.93-0.18,1.9-0.51,2.8-1.06c2.77-1.7,2.87-5.13,1.57-7.34
	c0.35,0.21,0.7,0.45,1.01,0.73c0.17,0.13,0.33,0.28,0.48,0.43c1.92,1.93,2.05,5.05-0.02,7.17c-0.09,0.09-0.19,0.18-0.28,0.27
	c-0.09,0.08-0.19,0.16-0.28,0.24c-1,0.78-2.2,1.26-3.46,1.4l8.11,8.2c-0.14,0.09-0.28,0.2-0.41,0.31c-0.27,0.2-0.54,0.41-0.8,0.64
	c-0.03,0.02-0.06,0.04-0.08,0.07c-0.01,0-0.01,0.01-0.02,0.01c-0.64,0.53-1.25,1.11-1.83,1.73l-5.4-5.46
	c-0.69-0.75-1.15-1.68-1.31-2.69c-0.15-0.94,0.04-1.99,0.72-2.66c-0.25-0.02-0.49-0.05-0.74-0.08l-0.12-0.02
	c-1.52-0.2-3.03-0.64-4.09-1.72c0.02,0,0.03,0.28,0.03,0.65C16.08,16,16.04,15.73,16.04,15.73z"/>
<path fill="#C67500" d="M111.45,112.02c-0.76,0-1.52-0.29-2.1-0.87L71.24,72.98l-1.62-1.63c-0.06,0.15-0.11,0.3-0.15,0.45
	c-0.02,0.06-0.03,0.12-0.04,0.18c-0.09,0.38-0.14,0.74-0.14,1.03c-0.01,0.36,0.13,0.71,0.38,0.97l0.59,0.59l0.05,0.05l37.74,37.82
	h0.01c0.14,0.15,0.3,0.28,0.47,0.39h0.02c0,0,0,0,0,0.01c0.48,0.31,1.03,0.47,1.6,0.47s1.14-0.16,1.63-0.49
	c0.17-0.11,0.32-0.24,0.47-0.38c0.11-0.12,0.21-0.24,0.3-0.36c0.09-0.13,0.17-0.26,0.24-0.4
	C112.37,111.9,111.91,112.02,111.45,112.02L111.45,112.02z M20.43,20.27c-0.15-0.94,0.04-2.02,0.72-2.69
	c-0.25-0.02-0.61-0.01-0.86-0.04h-0.03l-0.09-0.02c-1.52-0.2-3.03-0.64-4.09-1.72c0.03,0,0.03,0.28,0.03,0.65
	c0.01,0.03,0.01,0.05,0.01,0.08c0,0.71-0.02,1.68-0.02,1.79c-0.03,0.48-0.07,0.96-0.15,1.44l0,0c-0.09,0.66-0.23,1.29-0.43,1.91
	c-0.31,0.91-0.93,1.67-1.73,2.23c-0.22,0.16-0.46,0.31-0.71,0.43c-0.26,0.14-0.52,0.25-0.79,0.34c-1.65,0.6-3.5,0.51-4.65-0.47
	c-0.17-0.15-0.35-0.24-0.51-0.4c0.4,0.75,0.9,1.4,1.5,2c1.37,1.37,3.35,1.83,5.14,1.23c0.1-0.03,0.2-0.06,0.3-0.11h0.01
	c0.1-0.04,0.2-0.08,0.3-0.13h0.01c0.09-0.04,0.19-0.09,0.29-0.16h0.01c0.09-0.05,0.19-0.1,0.28-0.17h0.01
	c0.09-0.05,0.18-0.12,0.27-0.19h0.01c0.09-0.06,0.18-0.13,0.27-0.22c0.09-0.07,0.17-0.15,0.26-0.23h0.01
	c0.08-0.09,0.16-0.17,0.25-0.26c0-0.01,0.01-0.01,0.01-0.01c0.08-0.09,0.16-0.19,0.23-0.29h0.01c0.08-0.1,0.15-0.2,0.23-0.3l0,0
	l0.21-0.33h0.01c0.2-0.33,0.37-0.67,0.51-1.04c0.06-0.17,0.13-0.35,0.19-0.53c0.02-0.06,0.03-0.12,0.05-0.19
	c0.04-0.12,0.07-0.24,0.1-0.37c0.05-0.23,0.08-0.45,0.13-0.63c-0.01-0.01,0-0.01,0-0.01c0-0.02,0-0.03,0.01-0.05
	c0.02-0.06,0.06-0.17,0.06-0.17l8.04,8.13c0.37-0.47,0.76-0.91,1.16-1.34l-5.29-5.53c-0.88-0.97-1.16-1.85-1.29-2.62l0,0
	L20.43,20.27z M15.55,21.63L15.55,21.63c0.2-0.61,0.34-1.24,0.42-1.86l0,0c-0.09,0.62-0.23,1.24-0.43,1.86l0,0H15.55z M90.44,94.8
	l-1.4-1.41l0,0l1.41,1.41l0,0H90.44z"/>
</svg>
