<?xml version="1.0" encoding="utf-8"?>
<!-- Generator: Adobe Illustrator 27.7.0, SVG Export Plug-In . SVG Version: 6.00 Build 0)  -->
<svg version="1.1" id="Layer_4" xmlns="http://www.w3.org/2000/svg" xmlns:xlink="http://www.w3.org/1999/xlink" x="0px" y="0px"
	 viewBox="0 0 128 128" enable-background="new 0 0 128 128" xml:space="preserve">
<path fill="#FFAED3" d="M115.15,53.47l-4.45,3.57c-7.26,3.25-15.4,14.02-11.99,21.25l9.59-2.93l0.08,0.06
	c0.21-0.29,0.43-0.57,0.64-0.86c0.28-0.38,0.55-0.76,0.82-1.14c0.22-0.3,0.43-0.61,0.65-0.91l0.93-1.38
	c1.24-1.85,2.38-3.77,3.42-5.74c0.2-0.38,0.39-0.76,0.58-1.14c1.19-2.43,2.13-4.84,2.74-7.21L115.15,53.47L115.15,53.47z
	 M73.13,66.36c-0.31,0-0.63,0.02-0.95,0.06c-3.15,0.4-5.74,2.92-6.22,6.06c-0.15,0.92-1.6,4.1-1.38,5.01l5.52-2.23
	c0.07-0.2,0.15-0.41,0.23-0.62l-0.05-0.05L69.69,74c-0.25-0.26-0.39-0.61-0.38-0.97c0.01-0.29,0.05-0.65,0.14-1.03
	c0-0.06,0.02-0.12,0.04-0.18c0.12-0.52,0.38-1.02,0.79-1.43c0.72-0.72,1.85-0.86,2.6-0.86c0.46,0,0.91,0.18,1.24,0.51l0.84,0.84
	c1.2-0.31,2.18-0.37,2.18-0.37c1.2,0.05,2.02-1.07,1.2-1.93C76.98,67.16,75.1,66.36,73.13,66.36L73.13,66.36z"/>
<path fill="#FFFCFF" d="M73.16,51.31L31.54,56.1l-9.53,0.91l-0.13,0.03c1.69,6.65,5.34,12.79,9.66,18.39l17.29,6.65l17.23-6.82
	c-0.21-0.87-0.26-1.81-0.11-2.78c0.48-3.14,3.07-5.66,6.22-6.06c0.32-0.04,0.64-0.06,0.95-0.06c1.97,0,3.85,0.8,5.21,2.22
	c0.82,0.86,0,1.98-1.2,1.93c0,0-0.98,0.06-2.18,0.37l4.45,4.47l8.26,2.5l13.9-2.52c4.24-6.12,7.62-12.38,9.13-18.3L73.16,51.31
	L73.16,51.31z"/>
<path fill="#FF6A8E" d="M119.07,39.88c-0.07-0.34-0.14-0.68-0.22-1l-10.74-4.02c-2.19,3.57,1.86,10.55,0.26,17.5
	c-0.06,0.24,1.6,4.3,2.32,4.69h7.46c0.06-0.23,0.12-0.45,0.17-0.68C119.82,49.96,119.95,44.48,119.07,39.88L119.07,39.88z
	 M101.56,75.33c-8.89,3.34-11.82,8.05-9.75,12.45l2.93,2.94h0.01c0.98-0.97,1.96-1.95,2.93-2.96c0.33-0.34,0.67-0.69,1.01-1.05
	c0.97-1.02,1.93-2.05,2.88-3.1c1.66-1.85,3.28-3.74,4.82-5.65c0.3-0.38,0.6-0.75,0.89-1.13c0.3-0.37,0.59-0.75,0.88-1.13
	c0.07-0.09,0.14-0.19,0.21-0.28l-0.08-0.06L101.56,75.33L101.56,75.33z M87.87,92.23c-0.36,0.4-2.21,1.49-2.57,1.87l3.75-0.69
	l-1.17-1.18H87.87z M67.52,78.21c0.79,0.95,1.97,0.32,2.07-0.99c0.01,0,0.13-0.88,0.5-1.96h-4.03
	C66.31,76.34,66.81,77.35,67.52,78.21z M67.94,44.2l2.07-4.87c-0.05-0.16-0.1-0.31-0.15-0.47l-7.99-1.94
	c1.03,2.04,3.63,5.84,4.14,7.23C66.33,45.03,67.57,45.06,67.94,44.2L67.94,44.2z"/>
<path fill="#FFBAC8" d="M79.12,38.86l-3.76,2.01c-0.53,1.35,7.69,5.08,9.14,5.08c1.71,0,4.54-4.3,5.63-7.09l-5.14-2.52L79.12,38.86
	L79.12,38.86z M35.4,37.03l-3.52,0.41l-3.13,1.4c-1.36,5.02-4.31,10.05-1.73,14.63c0.22,0.39,4.16,2.63,4.53,2.63
	c0.5,0,4.45-0.66,4.54-1.26c0.37-2.64-0.02-4.54,1.19-6.91c0.83-1.63,1.87-1.64,2.97-2.67c0.42-0.42,3.06-1.78,3.52-2.15
	c1.02-0.81-1.9-3.41-0.74-4.26l-2.48-1.57L35.4,37.03L35.4,37.03z"/>
<path fill="#ABD3FF" d="M93.36,27.86c-2.73-1.93-11.39,0.46-13.65,3.63c-1.44,2.02,0.37,5.03-0.59,7.37h11.01
	c0.81-0.55,3.94-1.22,4.7-1.95c1.96-1.9,1.32-7.09-1.47-9.06l0,0V27.86z M48.28,28.42c-3.13-2.46-9.77-3.65-12.68-1.82
	c-1.18,0.74-3.14,1.32-4.06,2.34c-0.21,0.22-1.2,1.73-1.39,1.96c-0.18,0.23-1.25,2.52-1.41,2.76c-0.9,1.29,0.41,3.7,0,5.2h14.28
	l0.11-0.08c0.19-0.14,3.95-1.18,4.17-1.27C52.11,35.5,50.82,30.42,48.28,28.42L48.28,28.42L48.28,28.42z"/>
<path fill="#8FC3FF" d="M90.13,38.88l10.16,5.95l11.22-5.95c-2.45-11.17-3.14-14.56-16.45-16.74c-2.63-0.43-9.48,0.7-11.66,1.53
	c-8.38,4.53-12.31,13.11-13.17,15.19l4.08,6.4l4.81-6.4c0.96-2.33,2.17-4.59,3.61-6.61c2.26-3.17,6.57-5.03,9.3-3.1
	c2.79,1.97,2.43,5.9,0.47,7.8C91.74,37.68,90.94,38.32,90.13,38.88L90.13,38.88z M48.39,93.64c5.16,4.88,10.57,9.5,16.14,13.89
	c1.83,1.45,3.67,2.89,5.57,4.26c0,0,0.09-0.06,0.25-0.19c0.12-0.61,3.33-3.54,3.52-3.75c3.26-3.66,6.35-7.27,12.92-14.43
	l-28.77-7.54C58.02,85.88,43.23,88.76,48.39,93.64z M43.43,22.14c-4.09,0-8.26,0.81-12.06,2.92c-0.49,0.27-2.05,1.31-2.52,1.62
	c-0.01,0-0.01,0.01-0.02,0.01c-0.64,0.53-1.25,1.11-1.83,1.73c-0.4,0.43-0.79,0.87-1.16,1.34c-2,2.48-3.55,5.49-4.47,9.06l3.89,2.83
	l3.47-2.81c0.41-1.49,1.05-2.91,1.95-4.2c0.16-0.24,0.34-0.47,0.52-0.7c0.19-0.23,0.38-0.47,0.59-0.69c0.92-1.02,2-1.97,3.18-2.71
	c2.91-1.83,6.42-2.44,9.55,0.02c2.54,1.99,1.43,6.07-0.84,7.79c-0.19,0.14-0.37,0.28-0.56,0.42l-1.6,1.16l22.18-1.07
	C60.17,31.85,54.43,22.14,43.43,22.14L43.43,22.14L43.43,22.14z"/>
<path fill="#5D7DE3" d="M115.07,30.37c-0.69-0.96-1.47-1.86-2.31-2.69c-0.55-0.55-1.13-1.07-1.74-1.55
	c-1.1-0.87-2.28-1.64-3.52-2.29c-3.85-2.04-8.26-3.02-12.7-3.02c-0.59,0-1.16,0.02-1.73,0.06c-0.52,0.03-1.03,0.08-1.53,0.15
	c-0.99,0.13-1.97,0.32-2.94,0.57c-0.02,0.01-0.04,0.01-0.06,0.02c-0.42,0.11-0.84,0.23-1.24,0.36c-1.35,0.44-2.65,1.01-3.9,1.68
	c2.18-0.83,4.83-0.99,7.5-0.99c9.42,0,18.16,5.03,20.61,16.2h7.34C118.09,35.56,116.78,32.73,115.07,30.37L115.07,30.37z
	 M86.79,93.41c-6.57,7.16-12.73,13.16-15.99,16.82c-0.19,0.21-0.33,0.75-0.45,1.36c0.01,0,0.01-0.01,0.02-0.01
	c0.1-0.08,0.23-0.18,0.39-0.29c0.3-0.23,0.7-0.52,1.18-0.88c0.37-0.29,0.8-0.62,1.27-0.98c0.08-0.06,0.16-0.13,0.25-0.19
	c0.19-0.15,0.39-0.31,0.6-0.46c0.68-0.54,1.44-1.14,2.26-1.79c0.66-0.53,1.36-1.1,2.1-1.69c0.05-0.05,0.1-0.09,0.15-0.13
	c0.51-0.42,1.03-0.84,1.56-1.28c1.17-0.98,2.42-2.03,3.71-3.14c0.65-0.57,1.31-1.14,1.98-1.73c0.33-0.3,0.67-0.6,1.01-0.89
	c0.9-0.81,1.81-1.64,2.74-2.49l0.89-0.83l-1.12-1.4C89.34,93.41,86.79,93.41,86.79,93.41z M48.5,21.02
	c-0.48-0.06-0.96-0.11-1.46-0.14c-0.17-0.03-0.34-0.03-0.52-0.03c-0.27-0.01-0.54-0.02-0.81-0.02c-0.15-0.01-0.31-0.01-0.46-0.01
	c-1.42,0-2.87,0.12-4.31,0.36c-0.25,0.04-0.5,0.08-0.75,0.14c-1.19,0.23-2.37,0.54-3.52,0.94c-0.3,0.1-0.59,0.21-0.89,0.33
	c-0.4,0.15-0.8,0.32-1.19,0.49c-0.32,0.14-0.63,0.29-0.94,0.45c-0.04,0.02-0.08,0.03-0.11,0.05c-0.32,0.16-0.64,0.33-0.96,0.51
	c-0.35,0.19-0.69,0.4-1.03,0.61c-0.26,0.16-0.51,0.33-0.76,0.5l-0.21,0.15c-0.14,0.09-0.28,0.19-0.42,0.31
	c-0.14,0.09-0.28,0.19-0.42,0.3c-0.27,0.2-0.54,0.42-0.8,0.64c-0.03,0.02-0.05,0.04-0.08,0.07c0.47-0.31,0.95-0.6,1.44-0.87
	c3.8-2.11,8.07-3.13,12.16-3.13c11.01,0,17.72,9.17,21.25,16.18h6.15c-0.02-0.06-0.04-0.13-0.07-0.19
	C66.96,30.29,59.98,22.3,48.5,21.02L48.5,21.02z"/>
<path fill="#FFC107" d="M108.39,90.25c-5.06-1.47-10.31-0.24-13.33,0.78l13.31,16.38c0.15,0.15,4.17,1.17,4.28,1.35
	c4.53,1.08,10.28,1.53,11.09-2.8C124.56,101.59,116.9,92.72,108.39,90.25z M108.54,112.84c-0.17-0.1-0.33-0.23-0.47-0.38l-0.05-2.63
	L90.85,95.21c-1.03,3.02-2.28,8.29-0.8,13.38c2.47,8.51,11.34,16.17,15.71,15.35c4.33-0.81,3.89-6.55,2.8-11.08L108.54,112.84
	L108.54,112.84z M23.05,14.59c2.77-1.7,2.87-5.13,1.57-7.34V7.23l0,0c-2.75-1.68-6.26-1.95-6.26-1.95L5.42,4H5.21
	c-0.61,0.06-1.05,0.6-1,1.21L5.5,18.13c0,0,0.23,3.03,1.62,5.66c0,0,0.35,0.32,0.53,0.48c1.14,0.98,3,1.07,4.64,0.48
	c0.27-0.09,0.53-0.2,0.79-0.34c0.25-0.13,0.49-0.27,0.71-0.43c0.81-0.57,1.45-1.34,1.75-2.27c0.2-0.63,0.34-1.27,0.43-1.93
	c0.08-0.47,0.12-0.96,0.15-1.44c0.01-0.11,0.02-1.08,0.02-1.79c0-0.03,0-0.05-0.01-0.08c-0.02-0.44-0.06-0.71-0.06-0.71
	s1.96,0.34,4.18-0.11C21.18,15.47,22.15,15.14,23.05,14.59L23.05,14.59z"/>
<path fill="#FFA0B7" d="M70.09,75.26c-0.37,1.08-0.49,1.96-0.5,1.96c-0.1,1.31-1.28,1.94-2.07,0.99c-0.71-0.86-1.21-1.87-1.46-2.96
	H31.78l-0.24,0.18c3.03,3.96,6.41,7.65,9.67,11.07c2.33,2.44,4.72,4.82,7.18,7.13l0.13-0.13l38.27-0.08
	c0.36-0.39,0.72-0.79,1.08-1.19L70.32,74.64C70.24,74.85,70.16,75.06,70.09,75.26z M111.51,38.88L111.51,38.88H90.13
	c-3.66,2.5-7.53,3.2-9.24,3.2c-1.45,0-2.48-1.41-1.95-2.76l0.18-0.45h-8.89c-0.12,0.3-0.18,0.47-0.18,0.47s-0.06-0.17-0.18-0.47
	h-0.01c0.05,0.16,0.1,0.31,0.15,0.47l-2.07,4.87c-0.37,0.86-1.61,0.83-1.93-0.05c-0.67-1.81-1.43-3.58-2.3-5.3H43.02
	c-1.16,0.85-2.26,1.61-3.28,2.42l0,0c-0.46,0.37-0.91,0.75-1.32,1.17l0,0c-1.1,1.03-2.08,2.24-2.91,3.87
	c-1.21,2.37-1.93,4.95-2.3,7.59c-0.09,0.6-0.58,0.94-1.08,0.94c-0.37,0-0.73-0.17-0.95-0.56c-2.58-4.58-3.79-10.42-2.43-15.44h-7.24
	l-0.12-0.02c-1.22,4.81-1.29,10.63,0.33,17.54c0.05,0.23,0.11,0.45,0.17,0.68l0.13-0.03h10.11h15.82l25.18,0.02h37.57
	c0.07-0.25,0.12-0.49,0.18-0.73C112.48,49.36,112.56,43.58,111.51,38.88L111.51,38.88L111.51,38.88z M79.3,75.25l0.1,0.1
	l12.41,12.43c3.43-3.97,6.8-8.18,9.75-12.45L79.5,75.25H79.3z"/>
<polygon fill="#FFFCFF" points="70.95,75.26 70.32,74.64 70.09,75.26 "/>
<path fill="#FFA000" d="M25.5,16.06c0.09-0.08,0.19-0.16,0.28-0.24c0.09-0.09,0.19-0.18,0.28-0.27c2.07-2.12,1.94-5.24,0.02-7.17
	c-0.15-0.15-0.31-0.3-0.48-0.43c-0.31-0.28-0.66-0.52-1.01-0.73c1.3,2.21,1.2,5.64-1.57,7.34c-0.9,0.55-1.87,0.88-2.8,1.06
	c-2.22,0.45-4.18,0.11-4.18,0.11s0.04,0.27,0.06,0.71c0-0.37-0.01-0.65-0.03-0.65c1.06,1.08,2.57,1.52,4.09,1.72l0.12,0.02
	c0.25,0.03,0.49,0.06,0.74,0.08c-0.68,0.67-0.87,1.72-0.72,2.66c0.16,1.01,0.62,1.94,1.31,2.69l5.4,5.46
	c0.58-0.62,1.19-1.2,1.83-1.73c0.01,0,0.01-0.01,0.02-0.01c0.02-0.03,0.05-0.05,0.08-0.07c0.26-0.23,0.53-0.44,0.8-0.64
	c0.13-0.11,0.27-0.22,0.41-0.31l-8.11-8.2C23.3,17.32,24.5,16.84,25.5,16.06L25.5,16.06z M107.53,109.34h0.01l-0.02-0.02
	C107.52,109.32,107.52,109.32,107.53,109.34L107.53,109.34z M112.62,108.73c-0.11-0.18-0.24-0.34-0.39-0.49L74.08,70.01l0,0
	c-0.33-0.33-0.78-0.51-1.24-0.51c-0.75,0-1.88,0.14-2.6,0.86c-0.29,0.29-0.48,0.64-0.63,0.99l37.83,39.57
	c0.58,0.58,3.22,1.08,3.98,1.08c0.46,0,0.92-0.12,1.34-0.34c-0.07,0.14-0.15,0.27-0.24,0.4
	C113.25,111.07,113.27,109.73,112.62,108.73L112.62,108.73z"/>
<path fill="#C67500" d="M111.45,112.02c-0.76,0-1.52-0.29-2.1-0.87L71.24,72.98l-1.62-1.63c-0.06,0.15-0.11,0.3-0.15,0.45
	c-0.02,0.06-0.03,0.12-0.04,0.18c-0.09,0.38-0.14,0.74-0.14,1.03c-0.01,0.36,0.13,0.71,0.38,0.97l0.59,0.59l0.05,0.05l37.74,37.82
	h0.01c0.14,0.15,0.3,0.28,0.47,0.39h0.02c0,0,0,0,0,0.01c0.48,0.31,1.03,0.47,1.6,0.47s1.14-0.16,1.63-0.49
	c0.17-0.11,0.32-0.24,0.47-0.38c0.11-0.12,0.21-0.24,0.3-0.36c0.09-0.13,0.17-0.26,0.24-0.4
	C112.37,111.9,111.91,112.02,111.45,112.02L111.45,112.02z M20.43,20.27c-0.15-0.94,0.04-2.02,0.72-2.69
	c-0.25-0.02-0.61-0.01-0.86-0.04h-0.03l-0.09-0.02c-1.52-0.2-3.03-0.64-4.09-1.72c0.03,0,0.03,0.28,0.03,0.65
	c0.01,0.03,0.01,0.05,0.01,0.08c0,0.71-0.02,1.68-0.02,1.79c-0.03,0.48-0.07,0.96-0.15,1.44l0,0c-0.09,0.66-0.23,1.29-0.43,1.91
	c-0.31,0.91-0.93,1.67-1.73,2.23c-0.22,0.16-0.46,0.31-0.71,0.43c-0.26,0.14-0.52,0.25-0.79,0.34c-1.65,0.6-3.5,0.51-4.65-0.47
	c-0.17-0.15-0.35-0.24-0.51-0.4c0.4,0.75,0.9,1.4,1.5,2c1.37,1.37,3.35,1.83,5.14,1.23c0.1-0.03,0.2-0.06,0.3-0.11h0.01
	c0.1-0.04,0.2-0.08,0.3-0.13h0.01c0.09-0.04,0.19-0.09,0.29-0.16h0.01c0.09-0.05,0.19-0.1,0.28-0.17h0.01
	c0.09-0.05,0.18-0.12,0.27-0.19h0.01c0.09-0.06,0.18-0.13,0.27-0.22c0.09-0.07,0.17-0.15,0.26-0.23h0.01
	c0.08-0.09,0.16-0.17,0.25-0.26c0-0.01,0.01-0.01,0.01-0.01c0.08-0.09,0.16-0.19,0.23-0.29h0.01c0.08-0.1,0.15-0.2,0.23-0.3l0,0
	l0.21-0.33h0.01c0.2-0.33,0.37-0.67,0.51-1.04c0.06-0.17,0.13-0.35,0.19-0.53c0.02-0.06,0.03-0.12,0.05-0.19
	c0.04-0.12,0.07-0.24,0.1-0.37c0.05-0.23,0.08-0.45,0.13-0.63c-0.01-0.01,0-0.01,0-0.01c0-0.02,0-0.03,0.01-0.05
	c0.02-0.06,0.06-0.17,0.06-0.17l8.04,8.13c0.37-0.47,0.76-0.91,1.16-1.34l-5.29-5.53c-0.88-0.97-1.16-1.85-1.29-2.62l0,0
	L20.43,20.27z M15.55,21.63L15.55,21.63c0.2-0.61,0.34-1.24,0.42-1.86l0,0c-0.09,0.62-0.23,1.24-0.43,1.86l0,0H15.55z M90.44,94.8
	l-1.4-1.41l0,0l1.41,1.41l0,0H90.44z"/>
</svg>
